<mxfile host="Electron" agent="Mozilla/5.0 (Windows NT 10.0; Win64; x64) AppleWebKit/537.36 (KHTML, like Gecko) draw.io/24.7.8 Chrome/128.0.6613.36 Electron/32.0.1 Safari/537.36" version="24.7.8" pages="3">
  <diagram id="wFE0QG_FPsp0jaGvCLVb" name="Page-1">
    <mxGraphModel dx="1223" dy="1231" grid="1" gridSize="10" guides="1" tooltips="1" connect="1" arrows="1" fold="1" page="1" pageScale="1" pageWidth="850" pageHeight="1100" math="0" shadow="0">
      <root>
        <mxCell id="0" />
        <mxCell id="1" parent="0" />
        <mxCell id="_5mSTuPxr-ZiKRkBDSY7-1" value="" style="swimlane;fontStyle=2;childLayout=stackLayout;horizontal=1;startSize=28;horizontalStack=1;resizeParent=1;resizeParentMax=0;resizeLast=0;collapsible=0;marginBottom=0;swimlaneFillColor=none;fontFamily=Permanent Marker;fontSize=16;points=[];verticalAlign=top;stackBorder=0;resizable=1;strokeWidth=2;sketch=1;disableMultiStroke=1;" vertex="1" parent="1">
          <mxGeometry x="160" y="80" width="540" height="440" as="geometry" />
        </mxCell>
        <object label="TO DO" status="New" id="_5mSTuPxr-ZiKRkBDSY7-2">
          <mxCell style="swimlane;strokeWidth=2;fontFamily=Permanent Marker;html=0;startSize=1;verticalAlign=bottom;spacingBottom=5;points=[];childLayout=stackLayout;stackBorder=20;stackSpacing=20;resizeLast=0;resizeParent=1;horizontalStack=0;collapsible=0;sketch=1;strokeColor=none;fillStyle=solid;fillColor=#A0522D;" vertex="1" parent="_5mSTuPxr-ZiKRkBDSY7-1">
            <mxGeometry y="28" width="180" height="412" as="geometry" />
          </mxCell>
        </object>
        <object label="Task 1&lt;br&gt;&lt;span style=&quot;font-weight: normal&quot;&gt;&lt;i&gt;&lt;font style=&quot;font-size: 10px&quot;&gt;%status%&lt;/font&gt;&lt;/i&gt;&lt;/span&gt;" placeholders="1" id="_5mSTuPxr-ZiKRkBDSY7-3">
          <mxCell style="whiteSpace=wrap;html=1;strokeWidth=2;fillColor=swimlane;fontStyle=1;spacingTop=0;rounded=1;arcSize=9;points=[];sketch=1;fontFamily=Permanent Marker;hachureGap=8;fillWeight=1;" vertex="1" parent="_5mSTuPxr-ZiKRkBDSY7-2">
            <mxGeometry x="20" y="21" width="140" height="80" as="geometry" />
          </mxCell>
        </object>
        <object label="Task 2&lt;br&gt;&lt;span style=&quot;font-weight: normal&quot;&gt;&lt;i&gt;&lt;font style=&quot;font-size: 10px&quot;&gt;%status%&lt;/font&gt;&lt;/i&gt;&lt;/span&gt;" placeholders="1" id="_5mSTuPxr-ZiKRkBDSY7-4">
          <mxCell style="whiteSpace=wrap;html=1;strokeWidth=2;fillColor=swimlane;fontStyle=1;spacingTop=0;rounded=1;arcSize=9;points=[];sketch=1;fontFamily=Permanent Marker;hachureGap=8;fillWeight=1;" vertex="1" parent="_5mSTuPxr-ZiKRkBDSY7-2">
            <mxGeometry x="20" y="121" width="140" height="80" as="geometry" />
          </mxCell>
        </object>
        <object label="Task 3&lt;br&gt;&lt;span style=&quot;font-weight: normal&quot;&gt;&lt;i&gt;&lt;font style=&quot;font-size: 10px&quot;&gt;%status%&lt;/font&gt;&lt;/i&gt;&lt;/span&gt;" placeholders="1" id="_5mSTuPxr-ZiKRkBDSY7-5">
          <mxCell style="whiteSpace=wrap;html=1;strokeWidth=2;fillColor=swimlane;fontStyle=1;spacingTop=0;rounded=1;arcSize=9;points=[];sketch=1;fontFamily=Permanent Marker;hachureGap=8;fillWeight=1;" vertex="1" parent="_5mSTuPxr-ZiKRkBDSY7-2">
            <mxGeometry x="20" y="221" width="140" height="80" as="geometry" />
          </mxCell>
        </object>
        <object label="DOING" status="In progress" id="_5mSTuPxr-ZiKRkBDSY7-6">
          <mxCell style="swimlane;strokeWidth=2;fontFamily=Permanent Marker;html=0;startSize=1;verticalAlign=bottom;spacingBottom=5;points=[];childLayout=stackLayout;stackBorder=20;stackSpacing=20;resizeLast=0;resizeParent=1;horizontalStack=0;collapsible=0;sketch=1;strokeColor=none;fillStyle=solid;fillColor=#006600;" vertex="1" parent="_5mSTuPxr-ZiKRkBDSY7-1">
            <mxGeometry x="180" y="28" width="180" height="412" as="geometry" />
          </mxCell>
        </object>
        <object label="Task 4&lt;br&gt;&lt;span style=&quot;font-weight: normal&quot;&gt;&lt;i&gt;&lt;font style=&quot;font-size: 10px&quot;&gt;%status%&lt;/font&gt;&lt;/i&gt;&lt;/span&gt;" placeholders="1" id="_5mSTuPxr-ZiKRkBDSY7-7">
          <mxCell style="whiteSpace=wrap;html=1;strokeWidth=2;fillColor=swimlane;fontStyle=1;spacingTop=0;rounded=1;arcSize=9;points=[];sketch=1;fontFamily=Permanent Marker;hachureGap=8;fillWeight=1;" vertex="1" parent="_5mSTuPxr-ZiKRkBDSY7-6">
            <mxGeometry x="20" y="21" width="140" height="80" as="geometry" />
          </mxCell>
        </object>
        <object label="Task 5&lt;br&gt;&lt;span style=&quot;font-weight: normal&quot;&gt;&lt;i&gt;&lt;font style=&quot;font-size: 10px&quot;&gt;%status%&lt;/font&gt;&lt;/i&gt;&lt;/span&gt;" placeholders="1" id="_5mSTuPxr-ZiKRkBDSY7-8">
          <mxCell style="whiteSpace=wrap;html=1;strokeWidth=2;fillColor=swimlane;fontStyle=1;spacingTop=0;rounded=1;arcSize=9;points=[];sketch=1;fontFamily=Permanent Marker;hachureGap=8;fillWeight=1;" vertex="1" parent="_5mSTuPxr-ZiKRkBDSY7-6">
            <mxGeometry x="20" y="121" width="140" height="80" as="geometry" />
          </mxCell>
        </object>
        <object label="DONE" status="Completed" id="_5mSTuPxr-ZiKRkBDSY7-9">
          <mxCell style="swimlane;strokeWidth=2;fontFamily=Permanent Marker;html=0;startSize=1;verticalAlign=bottom;spacingBottom=5;points=[];childLayout=stackLayout;stackBorder=20;stackSpacing=20;resizeLast=0;resizeParent=1;horizontalStack=0;collapsible=0;sketch=1;strokeColor=none;fillStyle=solid;fillColor=#1BA1E2;" vertex="1" parent="_5mSTuPxr-ZiKRkBDSY7-1">
            <mxGeometry x="360" y="28" width="180" height="412" as="geometry" />
          </mxCell>
        </object>
        <object label="Task 6&lt;br&gt;&lt;span style=&quot;font-weight: normal&quot;&gt;&lt;i&gt;&lt;font style=&quot;font-size: 10px&quot;&gt;%status%&lt;/font&gt;&lt;/i&gt;&lt;/span&gt;" placeholders="1" id="_5mSTuPxr-ZiKRkBDSY7-10">
          <mxCell style="whiteSpace=wrap;html=1;strokeWidth=2;fillColor=swimlane;fontStyle=1;spacingTop=0;rounded=1;arcSize=9;points=[];sketch=1;fontFamily=Permanent Marker;hachureGap=8;fillWeight=1;" vertex="1" parent="_5mSTuPxr-ZiKRkBDSY7-9">
            <mxGeometry x="20" y="21" width="140" height="80" as="geometry" />
          </mxCell>
        </object>
        <object label="Task 7&lt;br&gt;&lt;span style=&quot;font-weight: normal&quot;&gt;&lt;i&gt;&lt;font style=&quot;font-size: 10px&quot;&gt;%status%&lt;/font&gt;&lt;/i&gt;&lt;/span&gt;" placeholders="1" id="_5mSTuPxr-ZiKRkBDSY7-11">
          <mxCell style="whiteSpace=wrap;html=1;strokeWidth=2;fillColor=swimlane;fontStyle=1;spacingTop=0;rounded=1;arcSize=9;points=[];sketch=1;fontFamily=Permanent Marker;hachureGap=8;fillWeight=1;" vertex="1" parent="_5mSTuPxr-ZiKRkBDSY7-9">
            <mxGeometry x="20" y="121" width="140" height="80" as="geometry" />
          </mxCell>
        </object>
        <object label="Task 8&lt;br&gt;&lt;span style=&quot;font-weight: normal&quot;&gt;&lt;i&gt;&lt;font style=&quot;font-size: 10px&quot;&gt;%status%&lt;/font&gt;&lt;/i&gt;&lt;/span&gt;" placeholders="1" id="_5mSTuPxr-ZiKRkBDSY7-12">
          <mxCell style="whiteSpace=wrap;html=1;strokeWidth=2;fillColor=swimlane;fontStyle=1;spacingTop=0;rounded=1;arcSize=9;points=[];sketch=1;fontFamily=Permanent Marker;hachureGap=8;fillWeight=1;" vertex="1" parent="_5mSTuPxr-ZiKRkBDSY7-9">
            <mxGeometry x="20" y="221" width="140" height="80" as="geometry" />
          </mxCell>
        </object>
      </root>
    </mxGraphModel>
  </diagram>
  <diagram id="4w_sucdFTheDyx5gbO-i" name="p 2">
    <mxGraphModel dx="1036" dy="625" grid="1" gridSize="10" guides="1" tooltips="1" connect="1" arrows="1" fold="1" page="1" pageScale="1" pageWidth="1169" pageHeight="827" math="0" shadow="0">
      <root>
        <mxCell id="0" />
        <mxCell id="1" parent="0" />
        <mxCell id="Kt5XPcpL3ZKM0HZaJIPt-1" value="&lt;h1 style=&quot;margin-top: 0px;&quot;&gt;Heading&lt;/h1&gt;&lt;p&gt;Lorem ipsum dolor sit amet, consectetur adipisicing elit, sed do eiusmod tempor incididunt ut labore et dolore magna aliqua.&lt;/p&gt;" style="text;html=1;whiteSpace=wrap;overflow=hidden;rounded=0;" vertex="1" parent="1">
          <mxGeometry x="40" y="30" width="770" height="120" as="geometry" />
        </mxCell>
      </root>
    </mxGraphModel>
  </diagram>
  <diagram id="wczkybmLJKi3dQ8btYbn" name="Страница — 3">
    <mxGraphModel dx="1036" dy="625" grid="1" gridSize="10" guides="1" tooltips="1" connect="1" arrows="1" fold="1" page="1" pageScale="1" pageWidth="1169" pageHeight="827" math="0" shadow="0">
      <root>
        <mxCell id="0" />
        <mxCell id="1" parent="0" />
        <mxCell id="2tCaVoyVuN92s-LVc2MF-1" value="" style="shape=image;verticalLabelPosition=bottom;labelBackgroundColor=default;verticalAlign=top;aspect=fixed;imageAspect=0;image=data:image/jpeg,/9j/2wCEAAgGBgcGBQgHBwcJCQgKDBQNDAsLDBkSEw8UHRofHh0aHBwgJC4nICIsIxwcKDcpLDAxNDQ0Hyc5PTgyPC4zNDIBCQkJDAsMGA0NGDIhHCEyMjIyMjIyMjIyMjIyMjIyMjIyMjIyMjIyMjIyMjIyMjIyMjIyMjIyMjIyMjIyMjIyMv/AABEIAcwBzAMBIgACEQEDEQH/xAGiAAABBQEBAQEBAQAAAAAAAAAAAQIDBAUGBwgJCgsQAAIBAwMCBAMFBQQEAAABfQECAwAEEQUSITFBBhNRYQcicRQygZGhCCNCscEVUtHwJDNicoIJChYXGBkaJSYnKCkqNDU2Nzg5OkNERUZHSElKU1RVVldYWVpjZGVmZ2hpanN0dXZ3eHl6g4SFhoeIiYqSk5SVlpeYmZqio6Slpqeoqaqys7S1tre4ubrCw8TFxsfIycrS09TV1tfY2drh4uPk5ebn6Onq8fLz9PX29/j5+gEAAwEBAQEBAQEBAQAAAAAAAAECAwQFBgcICQoLEQACAQIEBAMEBwUEBAABAncAAQIDEQQFITEGEkFRB2FxEyIygQgUQpGhscEJIzNS8BVictEKFiQ04SXxFxgZGiYnKCkqNTY3ODk6Q0RFRkdISUpTVFVWV1hZWmNkZWZnaGlqc3R1dnd4eXqCg4SFhoeIiYqSk5SVlpeYmZqio6Slpqeoqaqys7S1tre4ubrCw8TFxsfIycrS09TV1tfY2dri4+Tl5ufo6ery8/T19vf4+fr/2gAMAwEAAhEDEQA/APUZ5YUsyQwDdMGsma682EibBQdAKzLjz2v8OxKZywzU0VrJdH7pEY6c1KuZN6aCrdxhwsa7R3PtWnLdxRRq0OMEYPHJNY5hMJAKYBpQdy49PU0krGCm4uxdivwASckHuasDUkA7/lWSEY8Yzg1KoIUhhk1nKEW7i5maa6ijcZ57VG18xb5QR6GqqZ24C5JNCxSZ6cVPs0HMywL+VTyucVaivEZRuyOKoPG4B+bmocMp5yOlDpoLs2ftEYNBnUD61lCYZ70u/cAd3Wo9kh8xanvlXgA1SlmeQdOTTJd5XkEke9QEsAQMgj3qowSJbbGyRFc7zz9asQalNGqxo5x2qBQ0vGN1O+wykjHT1FaXshI1La9E2VlOD6imXIG0kYznvWeIpom4zipRJIzhX5+tS3fUpMsNEHC8c0vBOw4yfameeRxjgcVEZAXBMmM8ilIdkWniARjt5pisRIMZZsYxmolu3kyn3h61agtyX8xiOmOOtCstWARxhl9CSfwqTy8DaPxqUx7XHIyQc0oDMeBmtoSjchoiPHbimEnIxxz0qQkEZA+tQsRuzwQB1z0roTRLEkz2zVeRjkDGKsOwzjPP86ryADnPQVaMZO6AHHbvTirSAL1NQliABkFieKuW23IHcilJ2VwjuQC1PUj8KU23Az1rS4Dc8Dp0700qMdRnvmuZzZvZGaYDg8Go2jYYyK1AFcg4O3HHvQ0YPUDb2p+0a3DlRmRHMmCMetZuupvVyQCo9q6MQoAzYAOO1ct4luPJgYAcuMAA1lWlzI7sMkkc3t3yqoJIJrbd4v7PjjALPjtWJbwO06MuQR1zXU6dZiW3JZR+FcsXdna7Wuc0EWJJSVxuHf0rEuIYnkwoH0ro9S8pLh1BzjOQvesZ1bcz7QAegx61N9bheyOcugqyZwDzire0i2UEAA880sloJADgA5x1qW6QABQPlUDBrQRnht9wMYwP6VaaQmJuTjP60kFo7ZcrtJOMDtVh7FkhU4O0ngL1Y1aVzNySI7QKWHGFHvii8dF+ZsEDtnr9au29jIiBnH0UNwPqadNpT4O4AueVB7GnyO5POjJTLL91hj1GM/59aqSqWyFGR78VuPpVxtYEDgYwp7e/+FQ/2W4JTy2Jxyvr9aFCwe0RzqxtsYjn6Ui5xkZb6Vvf2HOAZG2xRA4y7cZ7/hWhZ6RYKql381j0JyPX7orVRuS6iWpyEi7HAcqvqCeamVgFAHf1rsLvS7VM7YFDDjgYx+Nc9dwiNsehwdo4H+NKULEwqKT0KLMNv9KrlNg3EDnmpnXJODkZ4qPnGD0FSaiQgnkYolIyA2famxuVbC/lUgUTzqGJCgd6VuoDoU2DzP50pj38hc1JIvlvsBBHQUg3Lxkj6VQHtdiksh86QFia622MaQiR1G4joBXPWquJEV2wvWtA3JhbcG344FaXOKEupHqMyzN93aBxWd26VblufNU5XnPWolTcen1pMibUmLGQHHH6VM6qy5BFEcBY9Pxqytrk8VnKyErlZI1Vd3Gf5U15SD6ZNWpUigUvI6KqjPJrn73xTp8ClY2JdTgbgBz24NCkiknY0g5L7T1YZHvRLvQFvvL145P1rlW8YRyMcxrjORzj8ue/NVJ/FB2/IGIzjJ4Yf4jrRcahc6pruDDbDkjrjr/nrTZLqOEbi25QcFgc4FeeXurySSbg4BHIkQ8ke9NTWZ1YkSkKB93J+cd8/wCR1ouP2R6Ot6mcBsg8gnvUiyKSNynDY/OvMo9XlgmUBn2ZwDnqPf8AX8hWta+JvJg2NyF7e4Ocj+VDemgezPR4PJQKyncGGQatKolVgCMjPT868+g8VxSbkKsIzlgDjIz1/lVm28XCNvLZwWGATnv0z7g5BrJxkw5bHchEePI9M9OlRtaq/YY7GsK38Qxzhgr4lVm6YPPXp9M/pVhdetnUuH2MPvKSP09fb6VLjJCsi9LaADAPqcVlXUyqPLKjdjqO+PSpLzV0MbBZFDA8EMMN06f5FYkl6rKzggHnK5yQRV00+pnPTYvQzNuBLZJ6DpVj7Qygnew288elYMt8hyVOMYPB/X/P0qY3+bdpQxLKCDz6f1rd0lpcwjU1aNhLqV2CiX5t20Zoj1OVSuZDwdpz684rnJbk5laNtpPIIJz0yB/TNEV2J5SyyKSykSA9D3z7dc1Lpq+xcZX1OvF4zAFjwRng/nVFrkoQytyUJwT3zWJb3RJmUv06ZP0H+fXNWBL5sIJPIZgP8/nW0IO6Mak2kzdhuw4LMuB784FI0oySw2nqR6CsaKcpChbOc7Wwe+SP8Ks+YSC5wCfl/Ot3GaZzKumi15gAaZgfcd8dcU62u/K3SP13Y/T+VZtxcbWEIDH+IgckdRj69P0phvo4rgwsVZwuSinOMnPJ/Cqk1bUqnJ7s6wyrFHvkY8Lgd88/zzVfe80wjwQAecdz6fQViSam7OOAMNkj+f06fofWllvm8o4JG4Y2j39fw5/AVl7Js2eIi9Eav27arsTgZwp7kZ7VOJyE5UqW9+RzisD7Q7BiR95ep6KAP/rVOLli7g8rGvLdvXr+NL2eoQqX0ZsXFyFtXJ4OeAK4vVzJdHcW+VRxk1rX0+6MR7ioPynnOOnNZdxAJPkLfKM55OB9awnBtno0q0YxRn2kjLMDyF7muwsHWOw8zOe556Vzdrbl9rAfKM7Qf51Y85mSWNSdq8ccD/PvWMafLqdEqyehj6pK8l2zIMhn7Cs+WeTjdkA4z9K03Aifae3Ukfd4PWqqRLNMWYHCHaMdz/gP6UlSuDroglt1knHl8Af5zTIrJppCxyVxgZHSrzsiLuY+Uue/BPpxTDqsEEZUKAMk/M2CxrRQSB1W0TpaKoCgYJHBA+6Ke0UMGC5BIIXAPNc9eeJV3Nlyw7Benb/CsO4vru+JPmkIedq9h/WtNEZ+zcmdlJrdjbSESyDcpwRnFVpPF1tGN0UZY9gcgVy0GnljvkYnOep4/CtiDSIUACqhBOST1qJVlE6YYKUtyWXxlj/Vw49iOlVm8TXs2dkTgesaBcVox6RCVJO0HGDkUS2QhUfKvTOVGAOtZPFXN/qKW5zV3qN3IVJ35xkFnJrOlu7tyWMzD8K2NSwxAHAx7etZZi8xwq5ycc9RWkZ3VzOdOMToPDd9cSWU/wBpnJijOdzHJzg8Z7ZwOKgvrlXdtinGTjccnH0qyi/2bo0cIG2SQliGHKjt+OPyzWTKRuJ5Jq5vSxyRScnJCIRuPHbim8Ngd/emFwBjt9KlRirJkfeNZo3K3WQjoBUqqWO77vFFyB5mBwalaMoiju1NAG0+QepYdzSoJCvApeRByc+lSJKNgz1qxHuiI7vtPFS/ZznBNK8p/hI/GozI+eTUXbOCxOLYZGT9amWADnPWqXmNkcU/zXUDnrSaYaF9E464AqQSIOC1ZjTu3HQGm4c881PKBpXMCXNs8ZOAwxleteNeMVm0K8CvC9zGSSj5xt9s4z7163FKycHoKy/EelW2u6e1vM8iHgq4JO0j29PWmlZ3NIytueFt4gR+DbMOeRuB/pSrq0chISDn/aNXNS0E2t49vPGcqSAygjP0qodGki5jIcE+nNVodMYKSuMfUTnAgYcc89ab9vXoVdcDnPrVkWTdHB9cYqOa2O0A9DxgD9KnmRt7BW0FS6SZGHmKTnOGOPyoExBIzke3Sq/2ba+dm5c/MMduhqGaJ7OZkBx6e69jVpp7GMqcos04bxopFkjbDD1qX7XlzJt4bPA5564x9axlm3Oqng+1WLViZht5GMMN2OOtNIzaOistVeBSgIdMAgM+3GOn41px6il1FFl8OAcE8Ek44PPTr09+KxJLB9iPtYwzH5XK8cDof1qZNPwpZZGDK3KDt0PGaDNpM0/7X2JLC7EAnB3HoV/r2/zmnrqDSKziRFk3D73AznHX/PWodbhhunMsBRJJEVtoBG/JByPfjHvWNO0VsQbabKE56ZAOeKpxV7k6W1Oss3S705t4KvGeM+3X/PtmnW8oBjUtuWRthb0PbNc7puoGK2SVCoKHaQeePT8/51djvIWuZVIKsRkHrnof6V0Qs9DzKy5G3E1LeSF7lbaTKAfJnPIHJBrAa7miuN4Lboy2VzyeD/j+lXY/3bplQ+M4IHUGsbVnVbiUZ6FWBB6/KM/596daHKhYKr7SbijprS7inkDrgGVSODwDz+vOK0YrtkjEII4JBJ64xmvObXVBETsCkDBbHb1+mD/OuwgvvPtTKgGRIflH909fyzWcZ6HVWpW9DQe+O1QCTG8u7HoRn/8AXTrjUf8ARIWyFbpjPIPTP6/pWU2fJO/7y7s8fh/Q1kavfkJDGp5UnH5j/A11zqJQTPHo0HPEOPRHQW+trcXwWUopklBX2yTg/lRb3cVxeTTqMgPhWBzlVGAMj1P864CS+eW/Gw9OFYevArqrN0tdJjBxjGTx19P0xWVF80kn01O/GUlRheO70NhtUEcm9iO5IByWPU/0/I1LYa15qrLMi5kcsgzk9evv0P5GuEvb+USMoYl3IAUdfoPr/StB7lxcrEpCsqLFuHGAoxn/AMdz+NOtWV7InC4N8nPPdnXXOsLHcFWOVc42Y5b6/nQ+vSsXUYCZ++eTjPX8uKxg8VzOjAYPQY7Y/wD1/pSyNuxGW+SM7mPsF6fma2jHS72OOdVqSglqalnqaXDsCpXLcZPLAYx+fX8RV6QK7uzAkD5G5xznmsC0UJcee7BIkGW+X72OcY9eMYpJtWiubpo42Ii3sy4bI55yfXqf5VzSnE9CnCbXunTsFEW1McHGAegz0H5VSlmNtPKi8ohySOmRWOmpK+nSSEBGG0YI7Zzz+Has+XWJpmmHmkKpxt7DJ5PvxWblF6HTGnPdm3PPHld7Eb5D8mevPOc9qrzXKqh2FUGM7jwfY/zrmPtokunkILKoBO04A47k/wBTVW5uDI3+tZ3IyykkLz24P8sVm32OtU1ZFq91c7iYgeeSzd/p71kSXEk7EmRjJ78k0kkssjkyOGJHP/6qdAhZsOBjscUbbmsVcdArP1zkn0xWlFbrGoyDgnHIwM0W645Cgt2U9M1o28KlQwf5v7vYevNc9Sd9jvpU4rVi21uRtYndn0HP+f1rUiEcSkqx6ZZUPBqtHCxiV9zH0VU+UfnVlZSgBZQMjr6e/wBK5Z6nZGyRMbhNwGV6DAzWfqF8AmDgcEYzxim3l3tDDAwck49fSsZQ946qoIGOe/404U76mdWolsV3El1IVUfePUdq0bSyS3uIw4LsoMkgY4AAHQ/Xp+NXbWFLOBnYAHPGfTpn6VR1K7+zwPAVQTz4aT+8o7L7cdfxFdkF1OGs7Rt1ZXvblry9ZyRjpweKozEsdvNSQfMeucelI4yxwPypN3ZjGKirFaRcFeTVuQBGh569cVUYt5g9j2q1cMJFjwCCO/rTRQl0F+2D3FLIS7KB6VEzHIMg6DvSyOrtuQ4zxTAuRoHhVW7e9DBAxyMVHAdvzZzgflSyzkyHAH5UxHuIzyOmOaXk8fkaAT3FPR1HbGeM1NzgFXdg8Z9KeXAAG2mFsjuPpT1QOcZxRcBVkUdcZNKshz2xTjCmc5561BgjjNGjAmMmTnHHrTZApGex5pueMYHFAJPBPHpQBzfibw+NRtjNbgfaU5BJ61xqQFUeNk2suVZSD8pHY16sdueDz7VyviHRAs32yIlY34kBGecjB+n+NKTOjD1XF26HJ/ZFd/mye4Jpx01Hy2w4XI3AZz6/zrYe0wg+RSAecHOPyoW3dWZ1YcDgZrmm2j1VONjnptKGT5agg9s4rLvbBfJUj5mT5XPoP4fw6iu1uBtXbJBuU5+YDBx9R/hWXcLagOiShI2Xa3mD7gP4fj+AohJ3M5yVjh2gCOJAARnr61K1uI5WICsvPPXpzj8qu6jaT2kpE0fzYBDA5B+h6dxVWOZM85ztXDEdwMc/lXWnZHE2m9DpIpY4vDjw71Jzlct0zwT/ACrPk1AwnBAJJUsDnP3TgiqhlkI2KzbScAj86gkHmQDI5X5fw9vancyUFe5YvLjLQ7nIHlbVYZ247H1H9OabcNJdxm6CqJv+XlBwGGcBsfkDjjPPes0ljCU5DLj9Oo+neptPmUTJuXcucYzg4PUfiCfxxSuXYkileCPKElR8xz+fP+e9WReMJUZWPAGflplzbBMjOVIyrddwx0+oBFU2bZKrHof4gelVGfYyqUlJHaWM3n2sZUbmRvlI71la9CzkMiYcDCgjG4YBA/LP5Uui3CBwQxAPDj0PXP4itvVLVZbRmU/MvKk9DjJH6Guqb56VzwqV8NjLNaM81djDKsyAkY2uB6dGz+ddJ4evzsYMeFG0++BjH8/yFYN5EY5mIXOWzjPDD0/KnaS22V13HBIOPXsa5rn0M4qUWjtJbpShwRgcH3P+c/nXHXF25Chj82cn16E1rIzPZeYzZH9cf/WrGdS14y4yFBP9K0lNuNjhw9GMasmgsUHmhj2Of5cfnXQCbbb7XOV28KP73QCsjToCEVyMncp/PJ/oKs3Mr+YV4LKSxHq2OP60RlZXLxEPaSS7Fe2Ja8a4fc4jBbbj7xHIH4kitC2ULPljlz1J5JPeobOB4bPzyc72AX3xzk/iV/KrEWPLZwCWAwOcf54pR9+WprUapwLMd00H8QB2nGP6+tQwXUs8xRGyWHzEjsclj/ugdaz7ycINqHouOO5/zirVvby2sfkEnzHw04HXHUKT/QdwPStqlSy5UcOHwylL2kkX3uGlhn8pnWELiNZOuSRlm9CcH/62Kz7VygafIxGeA3TPT8u9LLM58uIDgkZC+3YVDHE1xIIoeUiBaRz91fUn+X4d65ndnpqKiiY3asrQK255AGbA6k9OPwqsGFsrC6JEmT+4VvmOT344x+fHalknMStJbIQUypnGd7MegH90deByRjJ5xWXIjR5Vh+86Eeh64/Xn3qlFkqUb2RZku5JU2DaEUEqqDAHvnv8ArUCnKkk8s3ODTcGPAYFsjGPU4pMHI4IHQ59uOKDRWJQY5Dxlu3J6/wCFXbayeaULEC7Hnaucmqi2/kLHLckwxy5ZUHLMo7gf44qSLWZY5CsCeTCRgxqc5Huep/lSaGpHW2Ok2kSZuZckthYt3U+5Hf8AzgVdlks4EASNdq9BtYr+XSuWtNS8yVUkcqGO38OuB6VuQW/mxmZAvlr0aQ8fUk8A+w4rFwNFVfUbJdiRiyIpBOASOTUM1whRgVGMcE56elWBLbGQZ2uWOMqu5if0B/Oo5/KMJKo4H95zx9MAf41m6bOqOIVjHkneeYRgnn0PQ1rWtmlrG0kjbf7o9TVWC3t4wTnccZyR+dOa5byyPM2hDkEd+K0S6Ijn6sknnkXdMuP3Rzg92ydv16Z6dq524YvIZHO4sSSc9TW0Z5JNEdpJC5acje3sB/n3rEZw0nU+5x1q5Ll0OdS5pXJYmKrtBFWFjwp9TVdDukAOPrVsNtUA46elZ9SimYczHg4qyUVmUHgL+lIm0y5IzT7hhlUz25qkFyKeMPg8E+1MCbQOB60rnKqRwO1ISxUjqR6GhiJ0iDQlyTweQKgZSWO0ZFSxu0UeeSp6+9KhyMgcE5poZ7ljLZOeKXB7dKeD8v8AKl79KR541RnHOcGn4ZeeelOUEEcdelL16DvikAmTgdaTGRnFP2DAGeaft46cUwsQhfl4ODSHrUxXK8CmqB6fpQ2Ow0DAz09hWdq0AnsZ0jTqPnI4OPWtXZnBGMmq0pAkkQnqMjnH+etII6Hnkd60KnjEgwsmOOcf1p4u0kjIcsMdWQgfmOhH0qprNm8E32iAgowIdcf59RWFdXBjk3AnhiQvrz/n86hwO1VOZanTNeCSJvLuA5IIYMSR9MEelcprWoLJdCO2ChGXPyNxgZHFVpLiSZN4LxleOeMD3qmAZmUyqwYcFwOSM9/WnGCTuRd9S1DLNeWihJWaaPK4J4KnBxz3z+hPpVu3tFunMUsYLA7cjgj8OlS6XYEfdYZ+8CRwK6JLGJpGPyiXuO2OnNdEIcyODFYqNJmBFpzgtGV3EHp0Pp+fBoOn7l3qNydG/rn9K6c2wCkgAg9Oeh471MbBR5ZOCsgK8/icH8z+lKrRlBXIwuPhWfKtzz2aDypQGHzEkH/P0qqIvKn27cqSCCDjvXTa1ZBXZskNG2OR09jXPzxFpMgrgEfiDWUXoekndG7Z20k9nANmZEk2HPQg5A/Ws7VNO8ln2jG05K/7JP8ASul8LxyGJWIyMncMdh6g/p9K19W0+OaNpCjFHiOTjBGPX6Y/IVDdnoF9Tz7R5mjvFTdhWOBg9D0B/XFd6gBsgzJgryd3GR/niuC+z/Y7rfIoKbyrEDOf8RXp2hW32rR4jHl9qZGOd6dT19siuqnPS3c87H4dS5ZrdM841rTpEyyIAwPB9ccfnxWTZoY7gFT6j5u4r0O8scu0Uihs5iyBnPuPp1+lca9qRJMhGJYmDAY6gHBrBS6HfB3jqXkiU6TKwGQ53oPQHPH4EmsmS3KzybRhiMAfWui0iJpLdrVgOC65A65UY/z71Vkt/wDidRxYbKQ+c3HOMA4H4gVo27GdONptle2hEMDMT8ibgD9O/wCn60y3sjIPNfI8w8euMf4ZH410NrYhGZZWRYogTtbocEZDfif51c0jT1u7tpDhIkb5mYYGcZ6fnxRJ62HBbyMHUbRoIIYYxtcKS3oDnH/sv6Vn3EqQQRxbjknLAHt2FdLr+zz3EYVIkPTAyfr+GB+dcpb2z6pfSxRZ3FCV29+wrSL5FcynH2krdCWwtPOd7y4HyROAuT1brj/H2zV0W7iLzTu3S5Y/7WSTmuhh0jdYp5W3gnHHJyADVy50j5iXYhFUnkdRxgn9APWsnJy2N7xhE4owtLJuB+UYJ9uatW9jJcwMkI2wjIRN2fm4G7pyeSc9u1aaacHlU9VTBZiM8kcfXoP1q5LNFDECFC5+WPnkdAc/p+dddGgt5M8vF46S92mrsxBppQxoi/MMtwOnYH69/wAKgh0OVneWVRg8Dk8knnP5n/JrsbWKNreLAUnbuxj5sdqux2KGNRkBixHQDGB1/X+XpXRJU9jhp1cSk20efHRyInmEeUVWJZjgZ/w/xqo1qlijvLGs1wSQkeOE75bsSOeOnXPTFejNYrK0gAJUZ6dOOP05z9axr/SPNYBATuO0KBwByTj/ABNZVKKtdM7MNjZN8s1qefz755C87mSQnJJO7cRT0s9qI8rpEG5HckewHJ579Pet+4sBC7RwJEZCRh3OQvfj1+p6VjBN12BuZyWG12J+bnt+vXtXI01uevFp7COsMTbbeHLqP9bKMkn6dAPrnpTLnU7qVY4ZpWeJOFBbIAHoOmKtzRuIjIRksdqr+PU/pUCaYzndOwQYyQFwF9j70IJW6lqO/Xb95gAOWNWjcLc4yXJAwvNYUtsgfaj5PTg9alt2dAFMbcnpjAxScQTL73BK7UIwvfHfv9Koyyy3M6WcJJLHkfyqaY4iCo2WboPTPvWt4Z0p21iCSTYFjHnMuDjdyVz79/TkU4rUJTsrkOuRmwjtrCMrtgj+bafvOSSW+vOPwrCVs4wcmtbViZbuaTcWySd7dW+lZIQlxg8GonuaUvhLcA6c1bZQWUEGo4YyFBPSnrxOG6gdqzRYm3bL04FMlIaQHkVKEPmFscGmSRl1+Ujgd6pAVZSQQM8U6AsVYjnNNcHAz39Kki4D44oYEuCYD7VAGbHDH86nnbYiqeBjNVg2B6/hVIR9B7ADnPHan7Tg8cdaeB/KnY6DPBqDgItvU/5FKFzjJNShDz3p4iPoaAIth9eKUKcdqk2EghvypdoxyeaYERHHFIVOfSn7cc9/TNNeRkGflHIznPehgISE6kn0rlPEGpiNUEbq7cjaASR7Hn69Olaeq6g0cTIAoHdnXg/mf6V5vq995c7FSrk9VwDu9OOeaTNYJPcrajqn2j5WjbIOM5xnjH61nmOS5DFj82Mg55HXI5pq7pn3vx0H3uandvk3KoGCeM8j/OKGzS+uhJEry/KygHIwy9x/njFaEdhBt8z5FbPIX69qZpxLW7qVUIegJyR9Pxqw0Gx8MJB6MPmHt05BqI1OUzqwctEydUAQcBdv8Sjkf/WqxCXeTyy22Y4KsV4OOv4H9KuWMEUu8qxY4zhTlTz1A7H/AOuOtR3Ft5YeBSU2HcjA84BNVGvJMwlhYNWkixb7Xyg4DHoWyAR/n05q1axrPDcRH5RjK8dGH+R/k1jElZPtSRrIFI85UHboT7kdR7GtSWb7LLuyojlUMD03ZAz/AErthiFODhM8yplvsqvtaRz/AIhUzWyyAsWUFCfXGCP5/pXLkb5t6gtjjaDkHAzx611urRpLamRCxyd2D69P5Vg6dAfO8l8hQ+Dn5SAT/TNcjSTsj3KLbjdnYeE1HlRmRV2kH8CM8g9jiti8XZGIyAcSgI2MnuOfqDVLQI0RIwzKxDna2R8wPBB9epq5qf7142X5d0gZQTxu2g4/MVDRb3PP7i0237oVUh5MMjDAbA6+3tXc+CJfKhC78RsflHUoc55/PGf0FcxdJJ9oBdMuJyJB6cHoa6DQF+zzq8RZtkn7xWPK8gYPqME9KabTuE1eJo65p0TKbqFR5kb/ADovJyB6duPSvPtRtjb6jJMD8pB6Dhg2R+n6V6TqV2thdTRzLu3nCyZ446E/QZ/KuN1CAyTPH1ypXaO47H6g7fzp7MmC0sVdPt3EUz8lfKHzY6njGD+BFaNvapDqd1eFFYiKOJcrwDwxJ/QU22xBp5hwdwZoyT2wysPzDVetIkkDSM48szsdp6k+n4AGncrl1bKy2gdPs4Lhtsfzr14BZvxJYH6r9K6bT9OitLCNJAodwzsrEHA9/wDPU1i6CWH2zU5V3OYi0aHoSRnA9uR+dbcjCO0M5fzdkIXLcZOASSO+cr+WKa3Jeisefa9MJ5pZQDh3LDgc0nhe0d7mU4+YxsNzDgY4wPyqC98xsHaZWZ1DZPuW4HYfN/nFdXpViltCWAAZpGDKecru5z9Qf5USlcqMVFHQJD5UQV8MxVeAO4H3RUV1anOwY+YlmcnnO44/l+AFT28jyTwz4XaEK8nnPT88Z/Si/mRXdSyhSwCY5ycH2966IWjqzirXk+VHI6lPBbqNhOwZOB346/59q5lbh5r0Mx3ZJAXnA7/h2/Kug1S3NzdnCEEzLEB6c9B9fX0A9aWx8MSqpmuRyrllVO+OBg9/T/8AVUVKrbNsPhIQV3uTaY7mQy7sArznjHGBj145rYkLGALGrh5DhNxySB3P+euaji0+aK9jULkjBEf8MZOAAfTHp7VLcK0U1xMQWCjyo1U5yAPmb0Hpj1rOLZpKCKH9oq2+NMqiHDEnAwPX0GfxpS7TI7FwqhW4z1yOAR+XH+TQj0xpI0DsybizNk5I5+U+nc9B3zzU5czSGOONMRnaqDpn1J7nof8A9Va+1kkZfVoPWxVl06NWcqxyVLMF+cjj+90//XjtVB7aNCQsA8w/MWIO0Afz/PmunstN320pJbyM53McbsdOPfnj8ap3C+RbOwAIXb8rc8joP1OT3xjrms5SuXGPKzkb15A4ICIFHACgEe5x04/rVM3EgTcsr47EcE1fvx5iSAkkyEk84yP85/OoDb7rVSkYOBlQvHPp+QpJmrSMua9uTJtWZ856dQP8a1tMWYSLJcrFKn3trwqSOfpUEOmskpyoMmcKh6+5+gxXSWVoqwmRnUE7R2ULkjn1PStYGVSSSJ10u2unhcWcKE8kbAAPqFP9K2YIIo7aZ7aPc+3YpBJ6ZHpwPasKPUCjmO3AJIGWJ+7noc9sZre06VmQIzAZGNqtgD2Hqa3jyvY4Z88dGcDrVlLbzlWLMx5Py/5xWXBBl97sqDPCk8/lXVeJIXiUxrEYg2W3SEZPPqa5u3tipBdcAd/X6DvXLVjY9KjNuKLCFThev4YpsY2ztvGBjjtUsC7ZAETGe55NI6M0zMByKwWiOhdxiS7HYdaeiAoG6bj6dabcoY0XgDcOSTS253KqHG0ehqkJsrXagyrgds0yFSJDkdD6VYnGbkdOe3Wlb5I2yOM9aYIq3b5YDJPuKaqFlBBI+lOl2llJP4VPEnyZ559CKsR9AbcgcmnBRjkUBgB0zSkgmoOG45cr05+tSB/lz/Wod3vRub1xmlYRLtJoKk59qhGVB2fL34pDczxbiFWQdOBg0agObKcnp0PtWRrF/FbW8m5ipKnIBwSPUfQ1HqmrpGCGHz7c7SQvH41wGra4ZpCol2EcEqDgj04680yoxbH6vq6XTFhMzlWBJJx+vcd65nyZZpcqWIx0z2qOWfnIUKCOuTk/54qzYyCSTaVJPPv/AJ6Urm7VloLHFsJ4wT6DrRLCsZCk4Ydc8fU/hWpLakKJNmV6qfX8frmqd75cmGOXQtyTww/zis+a7GmmXrJUK5IVG/iH88fhVsqfsoMQx3xnlWz61ViCxoGPK8AH+8v+H8quRMRC+E+ViGBHc9fz6/Woa1uIWCdJVDlwky8b4zggH+YP+NTz33mzvu2EjnP3Q3sfTrVEHax3ruRc7sY+6cEZ/EfpU/lPNEvkktITwMYBP8jVWvqMuaZsFy5cHlR5o6jpwT7YI59xVqTT1ewKIWJjkyUPO0g9B6Dkkf5wtjbvFb2tzHCROAqSords4IH0zx64rVtbd7hJwpIVlVsjuBwRWiVyWjmZrURW6H+IEEZOc8BcZ75FZ/2JXnQIW3FCRzwCByPpwD+FdTHbPcaejSoqsCOAM4IbjFSW2mLKElVVHyE7V/iGSTj8x+dVYa0KGmcROzptKOAyjgjdggj69PwzxmrSBjGRINyld2R25Yjj8aPsT/bEgXISVS0gx93uMD8x+FXfs/2SzXcu2QljtJx8o43fTr+dPlYNmNewESieUDykG99pAOeP/ZVb6ipfCE0k15cSlACy+YoXpz1A9uf0p97uMDY6v8qgDJfj+QBxVzwrDE01yARtdVA2tkZJHIHb+H6/nSaKWxa8QqjtBcnhGO1j2XPAznsQf19q4WW5Ed6qORvQYKsc9sEfoDXc6xbiTw7OckyDkbjwducZANef6tGktzFKgKycZxxuIOGH5AnPsaYommoEto6ldiuMj64GMH8OlSW1wE0rnGPmLge45/kax7O8ZYoYoydzSEFep288/wAqX7SJI5YCMISckDnHT/GpKN7Sme7s/KBLSzK6KgO0chO/bqPpit69Bhs7i2JzHG/lq2egHcD1JX9R1rnfDl0wMBfCyMpkPGNoLHb9eOBj0zWtfSM8M7K2BNckqW+XgHGfyFMk5q0gZoJp+QDkbRyeBj+X+eK6e2tnnAjKlBheO5/iH+OaztHiES/PuHO2QMOzE4P64rp7SJkjRcbTEMLJnPUfd/U/gaS1Y2RhGiAA4z938+P5067TFlE6Rv5u9AqgZ9R/IVqzWqMFkwu7AyO+D7/XFSzRQyyIJCxVGUYBOM4xx69f51ozNRsc9FpBSfc2T+8DoAMhcMck+vT9K0poFW9soYoyUjYAkD+f0/ma14VjmaRpVIYZQNjGAOv6EVWu3j/tCEo4CKpdyp64IIP58/hQ1oVdlVYcJP5QyYsxIG/h7n9Sefb25zZ7CKVpYmdliiIDnpuIGenp+nHSrbXUKRKMqsThnZmP/AmGfbpUUDfaYY7iQ7fN/elSfljXbwzfUYwPT8ad7CM0LC5kMCqpB++cnnp/Inj6ZqkkMVkjmP5U5AkcY3c5OPQk8fia0vKcIjJGzCYEovQBTnB/JCOM8+uDWXdxi5uwGDyRxEAE/dz0AUeg59uKVxovPckWixRlpHYbmYjn3+nGB+A96zLmIyQrFGFCuxBIHJ6Z+vBH5+9R3F/IoaEZ3uwH97Cj1HbrWigjFokjoQRxuPRF4JH1PH4AVNhvY5LV7ZmjjgVSWc4Yjk4yev5fn9Oa0Qe0zjHnD5cE9OxxWzeTxGcynb5mzdzyEAB4OOvTH4GqV55EKKSWN06guG4KL1AOf4jnJ9PqMUInczrSN3uOXIZySeRwOhYn6HH51evmAtAFXCyNuyx5I9fYDIFQWwXzFiTOW4cj064qXWXWKKJEcZzgk9Acc49KuLE4mR/aCW84iBB+cyMT0BP+TXQabq0L4Mkm4k4xjOR6cCvPp5SZpDnqxwce9aGkXslpOH8w9ckHrj2q4toU6aktT1eIw3USCaJeuE34JHfgVR1TRrNQT5SsTzub19fWl0K/E8QYKCGxkhuvHHareo6Ct7EWhXJxysmW/ma2bvE44x5ZW2OGvIjBMQYy0Y6cnYfw7/nWZLcsXIZuO69AK6S50Y2asGSRFJ4wAV/LtXM3MLLPhd33uTj/AAriknc9OnJW3GysXQHrVq2AVBzye1RW6A5T72V6dKElCyhc9OKXUsaf+Pog9z0qe44tiMHPf0qFCDdnvzVy5K+UVQAjrxVIGzJcGQqo4p7M0R2HmpIlLzKxGMfpSXKZlztB464qkB9CBXyDtNOEb8cCn+cOgPHQU0zsOg/Gouzz7CeWe2aDGVGSQM0eY397FQmSUZw+7jof8aLMLD3YjG1j9Mf/AFqz76e4gjJJkCjncq5x+lTPcyorYhJ2gZAAwfxyP5Vy2t6rOkLhoyu7I5YqP5ClZjS1MTWtb3SPGbkS8g4KY/XFcvctJMd5KdOo5z+tPvZ3ldnEaYPAOcn8BWd5hwRnnPRV6VVjogrLQejBn2SKME9u1W7YeTKH5Xjgg1mKcNhueevvWvbkO46Z2+3JqZFNGzE+6FkKkgjqO3r/AJ+lZk7KtwO6HJcAVoRK0SbMkEdMe5/wrNaT/TjG5IxxjkZHH+NYp6kxRp2gDwSBkzIp3bezqccj37/nVu3TyRu3Bgdro3GDz39MH8qy7R3hmxET2EZPOPY+veuggaO5R9ikrtyUUZxkc475zz9KHoOxFDAFuM43Q8dcggde/tn/APVVyK18qVFwyF13xueMn/8AWee9T2ltbsoUuC6f6wHIBQ8Z/A/pVxh9l/dgjyM/uz/cIA5z7Af1ojqJs1o4A8jMhXLjc+OOT16984P41NaW32eKMFFV5t+RjGCefyyDWRaXMZlmQysrMfkZscsOBn69D9Ks6p4ghs4t4lwWZWAbnK5wwx2OMn8q3QrMuJYphiCNnzMRn+LPJ/MdKltrWO2jlEQL7l+QuAT6/qAKwP8AhLrSfzrdVVZVGCc468t/M/pVmLxHbvbu3mjcIwBuOMscj61SHY0obVbe8nkZN23aikYJGBnH4gfzrM1mFbuGS4RVLS4iTODtUHOMdAM9frWj9oRtPWRZdsjsAdwIGfu9P89KqNcHcEjhZmjAyQuc9wMD1PXvz7ChsZkXEZgt5UuDiRVGNp+7kEEkj6Hpydpx1FO0cm3jhlhJVGwVLD7qLg5OPrVq5Ed0Z3lkYRqSshzjB9M+pOSfT8aesIbeZP3cEJ2sG+X+IZUD64H5ipsM0daEg0UBdpLAMAeegxz+IH615dEjJIVD/u5UDqRztYcEfX5j+dem3tyZbNY9rFgpOBgEdxn8R/OvObYmS5EalcpKzAg9VIzj9DRfUUdjP0+GQaiY3HSR/wANwGOfrTbVUayMkYdVmURnPJJ4J+nRua0UQJNMytkIylmPU4XP+RVWwi2+RGg3RqRj04JH07Clc0N3Trfyr6HhSkUYSQ5z0bbj6D5q6K4hEjNGGZHLHa2c4w5xx36fzrM02OKSznVC27IcM+CR1bp9WH5CpraWW4hxHLmVeEJxnK5BznsefzobIZqraRhnfCAOMvgZAJwOP9n6dOvrW0IkitTuyFAPI7Y6Hoe2KytPmF1+9OBhP3ing4PYj6j6dM9K0ZJOFgMgWGQbQTwd2SOvY5xTSExWvwhPm/IVTBPQEHHT8f5Vl3murb3WA+48OgI/3gfbsT+Fc54s15rdljjkyWh2nA6euP8Ax3n2rg5dVuSys80m8DByecZ/Xv8AnVbjUT0yDxiyFI3kCxMD98feOf5Y/nVc+IxPcQzwgKPmV4yAcg8gfmB+deY3GrIuFeXcPvc+/p6dqsWWtWcMu15iqMQTtJ6e9OzHyo9QN5b3MCwyoxRA5ZVGS2SBj8f8a1J5A9kIoogkxiHDsAA20Y/IAfTPvXF6JrGmXk4Q3SyuV2qrjCk8kZYdOT79Peu4EO2OKaOJZDjcWTBz0AAJ6DIH40KLJkupKqNcRXK4VIwixbivoO2T0A/mapfY5TpL3BBSIlmBYkfL646kkdOmSeK1UYeX5QKxoredM/G1QTwPcgc89/wqC8jaewEbMytcHegVcFUUZBPp1AH0HvT5bE3OMkkXzWcKduMgcdRj2AH9ajn1AvE8eW+UkgMenHJJ/StXVljVZY4YV2o37yQkAL3A9yB29T2rmrsiGQsw8pTnGSGwAewHH9OKllNEgYeYWeNcIwJBXOeOOB26fr61kT3UlzdzSNJzI5YtnnJOSf8AAU57qSRCsGdp43N95vx7Zx/Pmqtsyi62bsADc7HgDip2BItxs0G6YALn5UHufb2H86g1kFNnmEbQgLevr/MirW1dzSuQsQPUdcDrj3/wFc/q1+0zsWbqMjn7o7D8qcQMR23knOADjk0iuwfqMjuppIZdwc9SOOTilw+8HOFHt1rUZ0/hzWJLK8UeaVRyA4Hf2r1CzvkuoF2fePA4Jx78V4tCzBsoRj1xmu58M6y6qkDk4LYIBPPfp0PSqjKzMatPmOuv7S5uIGAZJUJ42sRn+tcVqelGORmS2wRyfNTIH48V3ouI5FWPbtfHy7jjj+lZOswsVYgHBJOS5I9u+KqUUzOEpRdrHBmPy13mOMNnnDdvzqmux5CSCpHoa0p4BvaOQJGR02t/Tj+dZqx4nAxgZ7D/AOvWDR1xdxyqUdmJ5p6Sl19PSiRgHdQDgdKRQAAAMVNjS99B8eEOSTj370NtkYsadJtVVAJz7elNX5s7QcA460BY91DYOMUd6kAAHOM0hwDmlzHANzwOQKaTgc5+vSlLoOob/vgmoZpEKY3bSfYg0XAq3k6KrbeQoO5wRhfxJrg9duvtLbYn2grwNwYt+IA/nXVarMiLsDt06Z4Hua465ZJZmzswPunPP1NCuaQSZiNaBVBMTcHljgU77MjxAqCRtznIIP4nGK1BbIXUlvNGfQZ/wqjqKmFWZoXUY4IAyTTbN4qxz92583CZC56g5/WtDT5HY/MBleMk5/GqLZlZkZTnuSOTTdPkMV+yZwsiqeM8HGDRbQGdskqL87YZGGGAHIPr+lYdy5GpvkDcO/cg9D9R0rYtmLIhXsMMPUcf4Vk6oDbX1vOI/wB05CsB90c9vQf/AF/WsI25tSI7l6PZJGu/KyL824Dg988dCK39KVjuBVBIg3bs4Eozz+Y6jt1FZ2nRLjfDMh6EbhznHcfXqK0FdEcyW6+TgbmRuAOOfwznp0z6Gob1sUzTNz5KCaDiMjDGJfmz/ePtn9Qayb7U5EJhWYvuyiSABkJzjpnn3H1qKfV3jucRhZ1YZwXBxx7e306Vyer31vEkpPyhjlQr4P4961iu4Rj3Nu7vb1DC+WRXX51BBIweT1yB/LNZc+p2wUvJOWHIOc5LY5I/xrjLjU55mAid1ABHXqKreW8nLMxP1zXQo6A5KJ1A1yxVsuZCwI6Acjp68mnWutRreI/2pvlORkYz07Z4rlvsx7A/jTRCcnrxT5Bc6PUR4kkKx4lCptZywGQPTn8Bx6itOfXpJLOPy7meKUnAcKDlQRlm79Aeg/CvIre6ntG4OVznH+FdR4f1eCG+huJw0wVdqqxwufoPc598ColCxakmejQakRaLI4DMrbgskg2g9mP8+/TFXbWybUYYvPZo1D+ZI7NyznnB9Op4/wBonuKy9NKTGN3O8tIG/fnge2OdvXrXQWd0C0mSA0Y3SBX3BM/w56buPU/mcVKYNFXUCIA6KFjbDEnOSvp+POT9a4+2s5bOQys/zA71C91AORjP1re1SRjA8jKAZHfaTnCkA/rnmqeoW7C2ErLtCo3yHgg43AjHbIOfrilqJGRctt1edFIEcqheTjk//qNN0lYzcWwJUeZc7VAPRd3P9aYcur/MOHQdcbWBz/Qj8am0xCLyzRgS+dwzjqRkfzFBdtDeswlpeLbcB2m2MCOgAGB+eP1qtoxlSSSRWjeAlvkdiCrHP/6qjs7hLjUkuWwzTS+bnPQljgH360+1xLqHmJG4ViVO04YHPA9s8/nQtSGdfpzfvUzGxmUA4fgvkc4POe57deKzvE115duj/vHSI5wcKrk85Gep4pwxbxIxClgwwFRtuBj7xHt7fX1rkte1P7ZJsi2RgMQASV2++fT3zVLYVjldTvfMcmViir0Xk4Ht7e1c1dX7SOyp8qnjpziptUuC9wYlcuFJG7rmo7a1zyVz7/41pGPUmdRRWpT2s3JBzTlVk5KIfqtX5YAnHHHpSRbCMEZ960UDD6wrXSKoldCHiUxOD1Vzj8v/AK9dL4c8dajo1yiTTSy2xOGTcOmaow6etwF2qwPrjg0l1oEqZwo+op+yb2I+uU07M988O6za65Y+ZbHepYFolG3HGT747Z5qxKTbrLM8LBcbnlL8uRgYx6FsALwOa8C8Ma9deGtWUmRhE3ysNx24z6V7tHdwaraR3NneB4mCkgHJboAPb3rJpp2OlOMldGBqtgYbmKa5ZhFBHvZGYEySN0XAx6Zx7e1crqJaWV/M5YYQ+hx3P+GcV1z2hAKyzxvIS2XJxv6/cUdBjqfYngEGuWuBEjJsSQgH5dygZ7lzxjv07ce9QyzGcHZuJG3OFBOdx6cVDp6l5JZWyy7iCx5346/hkU/VJQEeQMN7fLGPcn09OtSWCiK3RQAWA5469cDP1o6ALfSEQ4H3c4Cg965W+lYg7Rn8O1b9/JsRssS2cAj+lc3c4IfPOD60RQRWpViJ3v05wealcgFckk545qCL77HtjFWCCEGPXsM1oNlu3JdvlBNb+lXDeYFyDg8o3X9e1Y1oF3fOHPTAbita1EJkC9M/3xkfmOlDEd1p+omRhGHWNhz1OB/n2rZidZNyYRtozgE59ewri7J2tQmV82MkkAMHH+I/KuhikjkjEtujAjJKLjn/AOvVxd9DnqRIr3Tbd28wQHd0yFGa5+40jJaRMoc9Pat+e6hnUpKskbcfMSV+hyM1l3FpC7kx3Y4HOXJz+lTLcqLdjCm03yo3czKTjoBUUFvujyXX6mpb6KaKXarcf72c0RBvLP8As8fWsjqW2pWYZcqecdxUiN5Y27SaU7Q+zGT2z2o3qpI2n86TKPdGdsD/ABqNpWIwqMxHoMD8zSAD8aXPzHBHSkeeRv5hAwoPtuxVO6uprdCTFEDjjJyP6VeknWNcsCCfbrXM6pehXyWAbPyqBknPr+FA7XMq+uJJZDvuCoz3HLfQYrJFqJJCzTL1zjbwfyxU8jGaRmcyyPnGAwwnoD1/IVKtqzjexCBfvL6H/wCtVGy7FiH92mSseSMEjnA9h+dYWrYl81QFA9AuO2K12icxB5N7Ac4UAZJ9axLybEgj2YCsOAw49qT3LRjxRlL9BvwpO3Hr19ayBIP7QjyDheMfjW5I7faEY/fLZ3EZx2wDXNvLKmqMEUsWO0j15q1sM9A0yRTsDDKthSf6/wCe1XNVtY7myfbkkqXyB+hx9axdJlBjMT7QycDqa6CK4SSEK6kxycYJ+6fTj865JqzuJqzuYGnansiMU+4MMDJwTx6EkZxXQWmoxzAW+9EKgFHf7pORjPt1B9PpXJa7ai1uWlBHJPI6n/69YzapJbl/LwwAG7d1P1quTm1KOl11rWzjkuGfDStjyUypOOd2M8DtXB3V097dO5G1WbIXsKffXrXsgJzjgcnJ46VNp1v5smce9dMIWWpnUqcibYQ2m2ENySewFXYrVjGNowcY6da1bSwHJbIrrPDHhb+3r42qyqmELFiOw/n1rVWeh4tbGO+m55vPaSRt82Rx0IqvAo+1+Vn/APXXZ+L9JbQ76e3LbxHwWHeuEtZW+2xSdTuFU3ZWOrDylUjLyN5rWNiC8eT2NVHtn06dXdT5T9OOAfWuvisMwpIR2z0qDVtMlutMkQLnjeuOvFXKN43OGnjfZ1LfebHhmdbpYBNNLlB8qFOPTr29a7TSg8xk2FYoogNiogGCcZOeecd+cDpXmngC9ZdTVjbmSWNTnjuOPz9MjGa9GsPKE07shRYzkMzE4JAz078+4+nSuGSsz6FPmiminfp53kxBzITOSGTnkZ6fiMfTGKl1KAOIkZR5DKshZjjGGA57nqfypr3Sw3UIXYACQoQ8DGSMe/AH40utMptEkUDIV8Bj1JxkY/I0mGxyV0zvqAmeNVCzhG5xjC4zjrn5f8as2lgLS3t2kkRblSowzDPUjt6jqfY1Olp5qPczhFaQ7+BknAHI6c8Dj1zS3cIlscIolVowAScjBIGB+Hf61JfQBaLbr5O75NmSWA6Zc/kN1Z1iZXvGVM7lcKGJyP5cDHrWxJDIJHt5ZDgxOqyDgZJGRj1Ax3x19axLUiHWPL3usbyZDKM4HbjPQ+hqkQdjqIe2jicM0qsh4ztOMYw2M+nGcVwHiue3WySWNAsrHlQuM8Yz/k811V9cIu1re4Jc9FUDBGMgfz4rzjxVeee8UIbeA2RuXBX2xVpagtjN0yya6cuQSCeoFbC6dJDkMjKvbcMVveBLW1XUrWK9IERKlgRgH617D42tNA/4RuQkwB1T90VxnNdaS2PHrTdSUmnoj5wv1NuGI6Y4+tQaaDO4HTkA81a8RkK0ag5yMgjvVPQju1GOInAdvypdbF0U5YdzPRNJsESKMjBfHUjp71Nd2qIhA/i+8PX61o2FoY4VON2V7U+aA4KrjPeu6yUND5OrXbq3ueca9pP7vzI+EJx9PrW78N/Fh0vUG027kX7PcAKrOcAH6/jj8qs6nZlo3B6nrx1rz66jFpdFgWRw2VI9jXDVi07s+myrFOa5Ge7avdRWu8QCMGUZO0klsdick4yMnp0Bz2PETzW9vDLLNISG5PHTv3/nVSXxNBPpgfy4UmYbpBGcH075x055H4muP1DUp9Tl2D/V9lTpXJyts90vSXjX18GAAGcLg101vHDFaKrECRx85JxhT1/QD86xND0i4Z1lMDFF46cetbNzbvIWhXmY4MmBnbk8Dj6VT7Ihswb6fzHdgPlUkLmsC4djtTj8u1dHqlsttFsP3hhSM8+vPvXO3SbW3dO31qlZDtpcW2U4ZuM/pVhSxO1mPPJx/WorYDZ15IHariLsj5bHmcjj+Htj6/0piH29wEbZiTB68ECtW1u4nUZwr8ggjg/41lQmPGRIQfTt+lXIMgjeMg88HI4/KgDobS4ibOI1UnjAUt+nNaNvu8zzBcRI2MbGJjPr3rCtYneTdA8iPzkDkAfSta2N6i8xpMh4IU4JX1x/9ahEy2NaWaTymZgMsSxJ4Ofr0NY0+z7TuEITcSSR0zW1GYFiXbzuUbl+7jsPYjpVC6tgm7YCvHzAr8p9z/kUpJig0zmbvbFdY+bC9Of/AK1PEw8sHOajnE3nFXBC9j/gf/11DKgQgcfgOlQbpE4G9ycg5pGZd3JNNjfYpBxVdnyxyD+dIo+hIBE837whV9c4q79ms45QfMGxhgc1g3F2qbUiG6QnFXoLS7WOKZCplY5w5BwPYdBUvbQ5qUdbMbqVmURpIXLYGWK8ED6ngVxV6jwISzIXkPCoCW/M/wBK6vWmEIJud0oU58s/dyfbvXG3F3JPcSOp+UcccdOoz3qh2V9CC3UxFCwX5xwh68/lWiY0wo85VZcblUHK/wBPzrDNyjSBYmZ2K5JAwOO2euK0LAlwZGkwqEsMAAfXFA7El+rKhjZuGGQrHqf5muauQiSklhgNjhRxniuhvZF2MfJZpHUYPc8/ifyxXLXu4y5MWwDJz6D8hQhlX939tiCAglsE49KxbWNB4kIk+VAwAPvXQ3MRVY5PMDFeH9Rj2rmNSmNnqbyIBnnr7HNVq1oUjoLWfyr5m3AqflJGOn4Vsu7Q4+UYYjcB0IzyR9OKwZrKe2jS4u9qzPglF/h9M+/+c1q2ky3kG08/Mdp6HPv+fNYNdgqLUk1KJrq2kiZS+3o69Bx39/rXFXkEkEpDDcp+Xn+IV2sV19mly6sVwAw/xpNS0ePULBrq2XccEAZGcjiiMuVkXPNHG1iM9DxXVeH7NpQuF7Vjajpc1mfMK/u8gKfwrpPCjCRFBOcDGM10OWl0cePbVFtHQxWO1OEySPTNXNKvLvRroT2reXKp+ox+NW7fDAIBjA/GrElnEY/mUjjmilK70PkJYhp6nIeLJp9Riu72Vi0jAszdjXncWTPGAcfMMGvVNbsjJpF0IgVAQk59K878PWRv9fsbXOBJMoJ9s/8A1q0buz6DK6ydKTk9T1jTrFRZwZUkbRnPNXpbJWTbt4xW7HpoEYUABVHJPQCrCabGPm5cA5GO9dLVo3Z8rOrOtVbh3PINChSx8cXli4Vl3EoDnj6HqK9Es7uQTXETGRDwU8wbt3OD16j+o6VwviO2Nl8SY3hXG/lwWOR8uTyOe9b+lzy+dNJl5PNB8k9TjqR7nPP41w1LN3Pv8Epewjzb2NaCET36PjKHcmG4GeePbipLmAXULRyO/lj5OCOWIKgfhx/WreiaVss4wSVkBJ5wxJPSrD2ajKqCBMo6gDcysMY54xgenesjpepzeJJbaCF0434ADZxnBHPX8uOans1U2cVo0b5jnUuGG0suVyPz49ORV25sBBqMRjQld/y45Gf68KP8avXNokUVxKqHzBKFY5GFXg5H4gcY7UJDbRgXjLhJ5ABGHKSZYcM2Mj0xwfrg1ydxcsb7csgWZSOmRx65HNejXumxXGkbNkahyGfAwB8pGfw5964C+tRLcEIkjTMdzkcAjOF7d+PyprcSaaIdbvI0CbuQRgHAyR+B6cVyoibXvECxQxjai5Y9OnJJzWvqcBmsYrbcftCbt2T97gYAPtk9axvDEzW+ssVbGY2Uk98//qrWKJl8LOhtVfeDEDu4x7VqXNzdtEPOZnPZSc06ytt5GEHHHHrV14QAI2U5HoM80e08z5CtW5Z2ZwHiqJopoNy4O05NU/DKh/EVmpxgv3NdZ4w0vzNKN1tO+E888AVS8A6dHcajHcSLl1b8BWkNWj1sLXi8FJ9k/wAj1BFwu1VOcdqaLQMctkGtKKMLjoc9u4qRogo969Rxuj4OVb3mYd3p6SR42fjXkviu0W0uwoPJJPNe03Z8m0kmk+VEBJNeJ3jy+JPEDCPLRs+EAHXmuOu1sfQZBGrUqX6FGxt5J7cooIDsBx6HP+FeiaB4Jt7Mfa9Sj2gKWK5OV9fxHT6itLQfB1rYPLLdJnyJMqn94jk/qQKtazqr7JElYZchQqgYBzk88/p/drjfc+1b6FTUb2O0hFtbbVc/M+OnPIGOuSdtV7QRWVubqR2Fy5LMQvCcHoPXAHrjJ+tZ6zPdXJmlYPuYtHGDwTzlj/sgZH1H4VV1m68u1aNcswwuMnaOhx79B9aEFjE1CTzbpnY7skke57+vT/Oa5+98wSASDHHGK2ok3yJlVJ+hNVNbiJeJUXLs2ABzknt9aV7NFpe6Q6dC0x24IQcyEHoo6n9avBZbiTftCkjgdlHTAqvD5cUQgViSTmRgeCc4AHsPXufbBqzb+W5wE3rjGOvGasgsRwSADLRY/wBp6txBUGH2Zz0Dg0+C2tEOG4kboFlwPypWtxnEV0oI6rJz/wDXpAaFnLGFy/IHXdgj88HFX0vEVwY5SCPuhuT+anpXN4MeHI24ON6HIp32yaIYDgpznIBI/wDrUB0OmfUyyYyDGRgqy5Iz155oN6sqEZO1R8pJzj/PpXPrfMQTJ1I+8vGfr3pVdlAZSR3B6j8aepPLcsNCj5+TGOflPH5dqzLmNllA3bh+R/KtMXB6OGWQ/iPpVOZld/nwc8+2KiVjSDaKbHGFwefWlSKNhk5JzTnQ+YFHQDof8adxHweM81Jpe57U6rYjMgw4HJ6mlg1GWQhSW25yqjqav3On/aIftcnLMc47Cs94Qu3au7dwqg9R/QVF01qc9nBket36NGVkId1BO1emOhyf8/jXB3P2i4b5nAQdfm6DPYfl+tdXqVujFvnyVIDMo4Bx0yfTr+OK5a4VdwYoyRj06n2ql3C4kUaqXMe1R3QZx+Z5/wD1+laFrbSM+6VgQjAgDgD/AOvWTDMSAw2xxgkBRn/9f/6604iFVd6F2xwG4x/QUyh10IkypUFieTndzyeg+n51mTwfaGY+aqM3XOeOvHOD+tXpNz5WNFVR2ycep6YzxVOWC3RxwhlzgtkHHHTGe1HUDPu4XjszCSjhMMuT36NxXL6ykcGqWNxOm6EurScfeUEE/pmu+3xu8Y8rznXCOc/eUj6cdc1w/iK2YWxIT5YpSfXjODVIaO78Z2kChJhAgZzw44P/ANeuNs7lrV9j8qx+XHQGtrUfGun6zYJGqlJlHKyAg/h2NY8FpLc2RukjkeLGTgcrg4zx/WuamnFNM3mlJaGs0yXEbOrYkA5PQ1NpN7JazCLCiFzloyPlb6Z6ViwuYyRuKt35/wA5qwt6yoXKI7dd6/KcfTpV8vRHPY6XVNDg1LT3iUbN3K7hwp9vzrg7DzvDWttbX3yRtjD9vY/Su30rX4zEImkyo6EEZI9OlXb7StN16LyJkRnY5V+hBOemKiMnF2exE4KcXF7MlsZQ8asuAMZ+lX5DmIDPB9fSuIuLHW/Biq8wN5pz/IgDYaL656fyrR0zxdpuouEMvkyf3JeM+wrSEnHY+RxuVVYTvFXRtT24kiaNgCGUjB965P4e+HJF8Q3N3Mg22pKAn+8f/rV15nWTDKQy9tpzXUeHbC2W1uJjGil3yT36VvCV2nI5aNWrTjKml8SsaUVvLHZyMUVgei1NG1ta6e07lYYUyzl+APWqN/4o0nSbNzdXCAL1BPP5V5F4x+Ic3iBX0/SIZIrZ2GW7tg/T9a1nU5k4nRgMC3OPKvUrapqUWt+Nby5tyWh88LG23HyBcY+pP6Dmu40GyivJY4hGwlQBtwA+8BjjFeYaEslhIDuYztkcKxIz6V7D4Su2SBXmjKsBxI2Bk/oR71zyS2R9nFckUkdJbxeWoUdVU5IGMA1KbUSupRQjggHIAIx1/ME1I99GBgqPN6HHXvjiqTanFbjLH/WfMu7kf/rxxUbBuWIrDIYMoJX5ASM4AyefzGfpUd2IfmgjyPtA+U9SeODTf7YjZZD5uNpGOeuODj1qlLqVsLXe2WUswESgdT7fSld3HZD52ia1dYgGVm2xHb8owMceo559a5rVbPEVwfMlSALhdjDkgYLknknkj0/Otf8AtyImQW/k7s7S+/O046fy59qoS6nbSxJC0aSwx4d/PyE3dQSemfbntVoVrbHmGuRlGdhGI9vykAkFcd8en1rn9Pu47S8uGfhmKsucDJB5/nXoXiG9W7Rna4ifdwOAA3rj/wCvxXm93EjSfcAAY45B4+tWtB2uelaM8UjyujblY7hk9Aa3I4TI64HHc+teS6TeahaOGtpBKF5EbHkj2967bTfG9tASmo209s/+0mRU8lpX6Hy2ZZdW55VKaujpNW0tb3TbizIC+auK534e6Hc6fe3r3IxtITafWtz/AIS/QZBn+0IeR3PSoT428P2JfN6rMxyxRSe1dkVHRnlUfrcKc6Si7SXY7WONPIO/K56NnoccfyqsbqKAeZLtKqPnJwPxzXDXvxU0xImjsrCed8Y3MQi1l2EHibx1OfPDRaVvBdVGFbH8Oe5OPXirliEr2HhsjxFW3MrLv/wB/iTxBP4jme00nclhHkyPkjfjjn0Ga6LwZ4STSkju51UyHBJxknjO0fpk+/1rc0jwdY6akS3SxBUUbt2OT1PJ681o6hr1jZwMscscagYyqHH0ziuRtyd2fY4TCU8LT5IIo316to2xVVAVZ+mSzY698AcVxF8BI7x7wmPvMyjIHYEcgeuBySBz6Wb/AFy1dgYyXLcqASWJ7Z9PwrMWCSRQZljhhJOA2V3HuQOpNI60SrNHBF5cDO6heXI+ZiOBx0ABxge3TvXPXglurrAy8xfGFPQ+g960r27htlyJpP8AZVVwT+GRVNJraO3Zxbsx5WSWdztTjlQFxknPTPr2oH1KKyLBMsUZ3sOCF53H2rO1PUIpNiWrM0wJy6LwoxjCnrzzk/lWje7ntg1pbwQuM5YRKS3Yj5s44rCXUrxHHlXLw54zEdn8qlJN3Lk2lYuWenX8w/d2Vy+eB+6b884ras9G1FZOLKUgDoMD8OtYK3F1cczXMz5OTvkJzitC0hDuN23IPVyOtWZ6nTw6ZqKhWGlIncjK8n8+afNZ6g+N+nzgc9F3H+RrJ8wREYPzd1B4zQZVUkANGx/ukgmgCRw8TmOSGWM453xlWH9DUJlK5jcFXH6/h9KQ311v2i8lkQdEdiQB6c1Ue/uA7dGQDkbBx+VCBkxwehGCMgZ4P0pqM6HfE2QT8wJxTAWuUyIHAPQgng+oNQsWSTa+VfA5I+9/9b9RQJo0hcJIoTG726kH2plyhLowYls/nVcNtcAjBzjPpShmEhODx0FQ0VF9yWNfMI3clT29atqAF4I/EVBAuFLAYPpirca5XgfpUM1sep2t/JKqxeYx4/DFTyzLaQtIMGTHG7v/APWqGK3jiJIGTnnNZHiW4W3gI8wBumSe2M/0pQTnKxzSujG1nXjuIVycZOMA4rA0/WZIDPL5XmsAcDAz+NUZ0urmR3UbgeCAOn/1+RUtvELItJI33x/SuqpFOPKkKk7O7J7HVri8k+1XEmGf7gPG1fb681twSLIrmR1IA5x0H1PWub07TJdS1F3t5I1UYJBYZz+FdDNatp2x7iWOTn5UHBPsF7/Suf3YvlNrNq5o25BUyRlduSEUKOSB1yew9+9U7p23czo5AIKAnjB56YFWreWSSIPIoyeihcgfiOBRdAMBIzAkYICtx+QoZLMJros5AYsCMMO3bB9apX9sZrYOdxU/L8w6jtz07fpWjdmR8J5DdcgHIBz+n6VVgeST/QyoMT52s8mAPxxTQHF2Gkm68QW2nuxEcko3HHRckn8eK9Um8q3iktihjt5FwVi/diMewHp/jXnV1G8VxuB8u4hfchU9SO30NWtR8UNfRIykic/wgcqfTHaoqxlJprY6KMox3L9zAY5GCMHaP0qp5yyLhlGSOx/pWqlhcwW0TXygTupYhVJ2+gPvWfPBj96nyk87WHFSmZzST02IohtYMF2k+vStez1CS2KkDC9gOR+OetZSMko/1ahupwcfhUjK+3Cj5en/ANem1czOvh8UkoI3iMqnouRz9KzdU0XSdaUukX2abg7wDj8gf51zokI2/KSQc/dqxHcsuHDSKfYYqVG2wWIpPBd7A5FvfZyTgDcuP0qzH4U8ROu19QmEXdjO+3pWpYXkjEoHc85G3/638q2IJ7g7dkrjaeQ2QT/jQ5yTsyHSi3exzEfw6vZZQ89yJAO/r+JroI/BbwWyxxRLnB+ZQOuM9f8APSun0uGaf5XZiOuW/wD1108VkDEFJjB7jdkY/ChTbepSSSskePT+Gns3DyqcLkHaQMn0NXtO1f8As/IVfLAGOCeT/jXd6voUVxAwaNGLZKENxj3B6V5/Ppd5ZXJt5V8y2aXhz8pjBGSQTwfpzVrVajTJbrxuQ/Hyt1bb/EPTBGBWVJ4snkOxCwHzABvTrz6n39634b3w1ZRrbma0Jxj5sZJ9/X8akn07Sr0lkSLJGQVUY9en4Vm6iXQ6I0HLqZFv4piETl5ckAJGAcGQ5P8An6VmXnidRezwxiRjJwNvIyQP/r1qP4NtTclmuGi2vwq4ORzUF9badYB5IwWIBO4nk+1P2kHshuhLqZE/iO4gysSShBkMcck8f/XqI+LZChGT3wf4vXk1BPrlormEKvX73Ws2ez+1Sr5QK7ud22tkZuK6Fu71bzhgrkt8wJGcfX1FU4oVmYnbween9a2NN8MyTABIXfA5wOT/APXrpbfw+0A3TW3Cj5enI9e35VVyDE03w69yFeBJD8wyVH8/b6V2th4Yv1AjnjSaJ+dp7n23dvaorK0ezbMcpC53bAx/I5ro7HVTLugihcY+Vmx16YOT6VIMyrj4f2MqkTW8UXyn5w+P/rd//r1THw10RI1lu7vYSfuq/b6EH+ddlb2jkOVHP3TnKg/mc/iPzrJ1jRpfJkld2cD+GKPCHt1LD6nmqvoRZMpQaf4O0HmKyFzcDj5wGz+fH44p7ePba1Z4Le0EW0YCwgA/yP8AhiuJ1Dz1lZIGLRrwN0W0E+gwTkZ/Cs1J5uVdJNnXJyP/AB3+dNMfKdTeeIprklgwXdzkykke3TArFMvmyF1ZHY98lgD+GP51nm7eKPaqFieTjBP056CmtfzudsYlAA6kkBfoaW47GrEJFjZjIgUYDMYwcfj0qtc3ZLeVAEx1LlVx+LHgCs5nkldd/mOF6eZkD9ef5Uk0jqm3a7Nnoi8D6f8A1hQGgojRZftFxIZmBwmc4z6gHlu/HA6duudc3OZgH3Hd6/Xt6fQVOY5rqcKUYZ45XA/WtibQVksvIZowpH3mdQVPtzSlNLc0hDqZxmjFtjIwBxg1zBAa6YAcZJ4qaWxlhleGS5t1KMVz5voakttPDvzd2qrjk+YeP0pxja7JlK+4+JCi5I644FaNiMDcd2Pdjz/Km/ZBgIstsSPSdRkfiRViKzdR/wAtmJPWIq38jmqIuXGlKRn5Qwz1Xn+tQ+dHIMAMueuOefoelDjyzllc5HBkXb+dQEgt79+4/OhIzc7aBcWjMhePEnqo+9+VV9M1i90m9zbs0iE4eFj1/wADW3YeH5NTs1nW8jjBOCB85UZ6nFVZdMk0rUmjvHhmCfddcZP9elS3BuzNI83UvajqInuUk8kKWHTAzn+tWYvJuY3SRd6EdD95Sccj26H8KoTWv2lhJE2dvy4/z9aIPtNtKpkG3PpzkDk/1rWlBKOpnUleWgl1pwtGMZ5BGVbOR9KpxR4ByQQOa7Q2MeqaTK+cSx52kHOcc4PrXKmLb8xG0jgYrOasaQZJGF2kHjA9OR71ci2ogBI55z61QXDsqkAD1FXhcSKNqDIHfpWRserIRv2qDuAJ5rh/EBNxrBtZPlVGLMcZ7f8A167OF4gwGdzYJI78f/qriNUOLm7uhgky4BPTjt/KpwN3e5yVboyL66SOIrHtRVyowPQe3fJrnbm645OTkjB5H/1/WrV/PgK2Txz+XU/yrNMMk2NvK4wO31/XFd7kTFX3NHQ7q5t4ppITliOAf0yafZ6hcXly890CW4CrjaAPQDtUdmn2NHU9D7/55qza6Rf6jfb7GLEZOZHY4AP48/pXJKyk5M6t48puxSyuU3E8kYijHb0//V+dbltb/uMy7YePmRfmc59TnisWzH2OcQsyZUZLbun/ANetiJkc7IyR1JyCccdz/kVrGHMtDkq1uTQrXriOPdAigJwpxk59cis8xBnjZo9sZZd524P15/yfwrammeNA9tHlxghyoCr+Pf8ADj61z15Ddys32m6WNCxwOvvWco8rsaUp8yK2tWw1KFzGuZIht3YwXHr9e+a4iORrXVILiUZ8uVXI9cHOa7ZW2RrCjM7L8xbkBR0/Gud1izRsSxAHcucLzn3Hr0P5ULc1Or1PVba70wTKQNwBC+hHb8KyLe4F5EArh1HVScEfh3rkxcXMEHkZCLnjd29q09CEstw+6f5FXJUjAJ7detZqlyp3NZVOfRF+eB0c4jwf7vb+dR+ZKp27WA7YPB/CthZpZFWMsWUHI3IWP59R9OlSRxFwRgtxhv3R6UuYyemhioGlcrgknp/kVp2VjOxzInHTAIOfw5rTitgigRxPgEZbym2ir0M62q7pZIgvbzLV8YHT2qXLsIu6fpi/e2FAeCWTAP4Hk1vw6MxX9wctjogOP16muePjO3sVXdb2kxPKsmUAH0K/1pJPiUQoMdpGGPAAkRs/Tn+lRaT3A6630S6UbxhTyMOcZ7Ekf4Vr2thNCwJljG0Y5Q/oM157D4y1+84Szyn90k5x9FBx9a2tLufEczfNbrFH25OfpyKdmmS7nUXNtIrZ83axO4HjA9MDFZ2qwx3C72aR8n+AEc/X8vanGbU7eMf6RFu3ZKohHH4mpokR2LSuFZlOfm4PTr2ANWm7iseU+KfCIUpcRI7W2cSKsZJjU4yR6/SmaLu0y7l0kStPGqGSGVmztHpn0Pp616XeiyCY+VpTzu3fKo9z37dq871x20rUJGsLdZN4xNE68kgkll5z1x9TVSbasa0p2Y24vnh1JId2N6gkZ781zHifUGBW3Xq3XHaq19rUk2pQzFdjjPy4q/Y+HLzXbgTTqIohnAIIL49KUKfLZs6atZMPB/hptRu47qZdtvEQ43Hh2Hb6eteoJ4ds5pjJKk3A5WPGPr2xUehWcdhBFE0kaIPlAHAH49+fbjFb4QSKqgwyPwUDHhQeuCKcpNnMmRRWMVtGnkzupUcDaOeO+Rz+Brn9Ws5ZSH8h0wfvROV/MA4NdDOt2rlrYJvH90ggD37iue1CXxNay+YlsHjZTzHwcfhkH8qUWBgtDqMLbSxljJ4HLDj6jj866HTLq6ULHLZy7chc7gpAxnpWR/bWqxqBNYyJI3dxhT/n2q9B4h1BPkmVY0OAFijHy/n/ADArREM6qTXItJQySMQ38MQOS5HYZP8An6Vh6nqcF1mbUL4oCAVtEl3Rjvk8cnn8+mepztQneRSfLSRl/ilycD6Z9awHlFxcHYYoyOA0IyRj3GT+VNu4JGrfahZNna8kodsjah+bPbd1xj0rKKRSvgW8ixkj53AX6Y7mr0emt5TEecXPB3Rudy9skjn6ZpVtin30YADP+oJ+p6UitTPktYcAoGYj+HYMfnk1WbYMhg0ZBzycA/pWjcXUIjJ+YMCcjYcfmKy5b1ZuGwmCfm60ILMilUqgxggd1fBP14rKnKhHb5yVBPOSP51NLchmyxVj/skda0La0R7Ri8ibmUdxyf50SlY1hDqzl4LxlmEhwwHAMZ/p1reXXLUW3lSSL5i+oIP0rB1WzSO6cIVGPU4yPpVQSxrEFnkMqr0ULgj/AIEeaOVTJ52mJfypc3skkZ+8f1q1bQeWnmAbieSP5VHDHA43RR/OT9yR+fqCMA1oQyyROVSJAyfe3Rh+fo2cVaVlYiTu7kUaMWyUDN1PHNXBY3CqGFvKR6bDUovbxv8Al5lHH8DFf5Yqu0pfBc859apGUn2NC2a+jGAs0YGBgDAI+n+Ioukmdd8topz1dcIQPw4P5VnhlJbB5/nUunWFxqksltazwJJgkJIcbvoKfPy6keyciSwM8N0HsXeOc8GKU/Kw9mBxn8BS629286SzxsD0+VePwpE0S/0W/J1CDYQMB1O4H/D8akumkuY2RVzGwBZHOVY9iB1B9+tRzKbTSNoRcI2ZXgmcbcBlPGQOP8/SuitLiG4jEcwVj2bHbqPx61zTQbPmt98UnG6NmHUdCDx+R5+tX7S4II3KCwwCCMHOa6I+ZjJdjq/D8Tx30lmSWAJYE9G4/oP5Vh6nH5d5ImcDdyB3Nb2mPs1C1lJyG+UkA89z/WsbXgf7WfbzyQSe9Z1tkVS+J3M4jy1DDn0anxcplxkknvSO2VCgdunoaeFYKARXMdVz1q9tVtb4vE2FzyQeg71xOvBYhIvmAYckH+X9K6O5nmupsZOCe361zevLmVhtPT5QMA8Dof1owck5M5a3c5NLf7XOwKgxhTlTVwwRWyYULuJJz65NIipBb7lOPmySO4//AFY/I1WmM13crBbh5JXkCRogyWOeg/MV2kavYhuZC53JgAHPB/nWhb+IHsNIkWIne4zWXrelanotytnqlpJbSyLuG7HIHXBBPerenWqz2pb5SewNc9azR1Uk0S6Vfh7gTXD/ALxjnGec/SunS6aQgKVyfvEjJHuTXDzQGzuuFxzuz1P5Vs2F203y7skjJXOST7ntWlNpRujixFJupZnQyuxJ/eNswc4b734+n4Go2heZQIVAJ5zs7evT60RiBAXZyoZuORjrjr36denpUTT79pAZlY59N2fTvWMm2zpjFRVkZV7DCxjVJN+Cctt4B9hkjPvVGYNgxlXXqUZvvf8A6vpW7NMijDOOm3y4xgDoRz1/wrLu47hBm43eZ3DHG4dh65qSzjL1DFMdo2EnJB610vgiRIDdeb8pYKwJPPGc8VVvrYy5CbRLkhdvUAcnn/E1hxi6tZnaJmix/wAtAeOffvVP3o2GnZ3Ow1KWJbjIyoAz781JbsxRWALZwRhK45C73QV3kklJOWfPX0Fd3ZW6jSICW3HGfmYnODj1rCUfZxNLc7L8QvgqOZ0iB5VQVDfypZFhnkRrqC2lKnG+SfJJHUkk1S3wLkqse7oGYD/Crb38tnIiFVRmGFXGeB9PpioRm4tCNdaRBI2+1hO7AyJRnr61rJqmlygJaaYk7AkZ64+g5z068Vive390+FWNV9SoJH0HT86sR3k7AYaQAkKHbluDztAwP/11diDo7K4uowBZ2VvDhsuQCTn6Dj8TWrCb+YB7i8VEPGIk5649awYL1IrfzJF/coAc9cnPYdz7Cozr0sly7lJ+D+5ix9zGcHOPvHnj0H5iXcWrOpXck4iaWTP8IkfOfw6/z6VGZ4fLdipcrkqNp3E+h685rj31W8iuHYuyTuCPvDg45yf5n8sdKbHqiQs6b5GZsdAAAAOxxz15/mKtBZ9TXur+C0jMsO4SSsRvJzxz3Of5VhSwq6bpPkMylFBGDz2yT04J9amudTtBhZZFAiXnJwwzjjP+etYera6tzHHHbPIzKm35Pun8f885oLUWVdSjtYb21DeXnaDvUckdvxrsdMnR9HbIjJGBIeFAJAG4nt1wfbmvL9S890adyQwXcvtgD/61aujazeRWksYBxIoGcZ6f41T1VynBo9H8xEjKW6pszvAbkAkkn696t2bngFeGJCEZ5HU5HcVyNnrojT5gyrG7SZU+pPGO34VPJrqGSKRD904CDGGBGSf9nris7XFytbnbh5WORJCYRnEZX5umDzwabeRX0UQMUwKsOfMIYfr0rkDrClY5op5UGCcLjgZz/wCzVqnxFM1sqOWOV2htoLDI67e49h9aFEViM6vexOY5YEJY4ZQnysO/TH8jVK6v4IJHAtgUUZ2gcgYPr/n+dTx6igDqxU7vmXZgHJ6g+ucdsVTvonlKvbss4IA8ubOOOBg849s/z4qthDEu4ZN6xsScA5Az05zg/wAqpyahDB893C8ic4aJiOP908d/WqvnrEwVnkiyfk8xQ/bp36Y9uD7VM0x4V3TG3/llld2frx/OquOzHXGsW0m2O2SUcfKJEwcfniqEt0yMWRVRyc5Hy5/Ki5YSFoxnYefmHt14qOTTZYIPMkl2jnOfmGPp+tJySLUGylNdM8gY7Q3uxOaljgMqqUYhduSSOtc9b3kbynJ29xxj/Pauktry2S3LbhuAAI9fWiTaWhcVHqc1M/2K6lBXIEhP4YGP61o2fiaK3UowkVT6YOayNTuFkvZeOuMflVSOEyEkDjuF6irUOZK5ndp6Fy9v4ryZpBuRmxgHoR7/AOTUEFo7nzGUtHn768qD9aEtkzg9eo57VqWwCgKvynbgj1qkrEt3GWtuYfn6EnjjOf8ACryuWC+YAyqAMg8gfX+lR+WXVtqrkf3ehHuB/SoHaSEqGU7SMjnK49vamS9S1LkYYEkeuOgqmznOPl59P89af5vyllPGOR6VG5VxkEZ70E2GyNtVuRnOarwX8tndxXkBPmRtkbuQfY02eTaAQcN/OrWkacbyfz2GUU9MdTQ7IuOrsjo9Q1/+0dLjd8h8dW/rVO1dkwjkZwQMnv2/pTtTtlgtFx0B7e9Y6XBGI0++DgEn6VNCy2Lqp3OiNvFcRZOwYB+bORwO/wCdVggguCkqswyNpA6dOPfGP1otJwCql8/e3L+v9P0qzOgkhjJHGS25u/H/AOoV1KxxtO9jo9HQMYwrqArbye2MZ/z+Nc/eyNNqkpzlckZI6fWug0Xai3AHKopB75OMdf61zrSbrp3wcE8e31rKs9EbUVdsiCkT7jnjuehqR3V3JH/oVLIGVMle9QgDnJH6VzrU6LHsN5owsIVIO47gPxNcp4otIlhV0G1x94HoQeh/lXoqzCSKNJ0OByeM9Kz9S0X+0LK5RCCGXKKwxj2p0YKE7oxqWaPGXX/RQowNwzsPtn9f8K7b4aaIUlu/EV7bHZCnl2bSJgGQ9XX1wAOf9o1yV3aNZOI5UA2yEkY6+v5jNdvf+NZHme2KBIV/1arxgZGP04rSvV9nEikru5sa/wCHYvFGhTW0yBrlcm1m/iSTAIH0PQ/4ivFtHvTau8E25WVirgjBBB5GO1et6b4jjLBfMADEDJ7CvP8A4qXUMviGyuYlRZZbciVlXG/5jhj79vwFcdOtzvlZ1PTVGPq83nxMykg7QQc96p2d4YMIDliOc449SaiguUltgrH6g+1V/s5RjIrBwD0PX2rqjorGVT3tTqLe4+1bGYtIFHT1+nt+laiTZjATk/dDKOOfQmuQtb9VbDHYoP8AF0+mK3LS+XairwfvM0np6n0FNoSNeN4sFypCKchmX7x77TVKUvO3mMC0j5O3oPqRnn8z3o86W5jU7iCxP1P4dvarUXlwx5Uwsw6MScE/1IqAMe5twyNvPytwQp4Yfl0/T2NYOp2ktxLu/wBWgAPlk/dwMfnXTXLZGCHZmPG48t/hVGePLsrhWYnnHAB9KFoByQ8y2lIZTuHoCDXT6f4gjGjhJDhkyOvPXI61UvLNJUwREmTyzD9P61my6echUIGByMYz7k/0pyipqzKjJp3J7rW5pnJiXYo5XnJrpND1lL62bzEQ3KAeYWGS/wDtZ98VxTI0DYZQc8CmwSFLhSsrRA8F1ONoNJ004lKWt2ekQatG900Pl7Tt43NjGD0x/Srl7exWds0m3zJiB1/kP8/lXHxLDFIl5bsXig6kMeex+ua2b7WLFtNklDpIxQbRxu68CuflaasVaLLC67KyLKsKOG4jQ8jp1xVT+1NRXWIwJlVpY852/dPTj0A/pzTtB8qePZIDHIp3AZ6g/wA8GkZkHjC1j2gxxoYnPqSD+vI/GnezaGkkrlwpcfvHeQhcEuR1IxnFY2lGa6nuSzHMbkbev6fjXVX4hihnbaDHEBv3dz2UfzJ9cVy+gXVva3s7XcqQ+cQwdjgE8kgnt1/SohJtMtpCazbtE9grNh7ifBOeuBya2bPSkSZQY1ztJH5da5rWtTTWr2FrVXWG1zsduN7Zzn2HAxXoelva39pDdwSLzjjvnPKn3FOTcYpgmmzmPFFjDZ6LJIMHjYpPc9v8+1WfD2nRXOmwzBBsIBzVD4k3q/6Hp8bcrl5eeh6KD79TVz4earby2X9ns+LiJi6of4kJzx9OR+VCUvZXDmXMbV7o0EcTMow33hjnHv8AnXO6Bbm7tJGU7vLldMdRweP511niPU4NJ0K4lYgSMpSFCerkHAHr2+lcF4L1iPSFlFyHa3nO7cvO04xn6Hj8qVK7i2EmrpE3iaaXSnjSI4VnKlfbH/6vyrc08PeWSspYHaF5OeP8MGua8SX8Ov6wkFnl4YFJMuOJCcA49v8A69dh4KZLizKMFJjG11buR/8AWxVu6hcSUXIxbvUJLW9jt23EyA4JHzAjpn25rQQXLDMknB5B7g98Z/zxWN4sZB4ogdR/x7orEepyT+uBXQX2rWVvobXwK+WU3J7nsPrk0c0uVCUVdmSs6y35gZy4R9p7EEeh/MVaurdLe0EhBEZUkSKMZ9Ae36YNcZp2qfY71Z5uUdt0mOcH1/WtfXPGFteaW9nZxy5cbS7Dbgd/z6fjTcZ3SEnGzIbDV4pNrGeMFv4X4IJ/SneIteSeF7GAkPnEkgbjB5wPX3NcyFjMSFyA/Td6/Uf1qKSMs56Jg857++K2VNXuRzuwxg0bEHj0OetTpPcBQqscdqtWtiwOZPlXAIBY4NXBbCMf6tWPXOOfx9+lWQVLfTVlZvmG7P3C38jVhEEQztAx0BHJ+lWUTYQxQ5PIwcge+KsfuZlBPTGBuHI/ImhtiMzYgIABKnnmrKKpxwdvt2omtHDb4WWRfQHB/Wm4cJu5U+hHIpgPkBjbO4+3HNM8wqdhwyZ6N0/z9KPtIcEdQP4c9KY2B0K4J4BpCBlAG6PnA5B6iqzttOVPGecdqc8nlyHB+nNQuROC0a4YfeXPX3H+FUkJsrSt5h9vX0rp9DdbW1XPTGTzyaw4LHDKzyADOcf/AF6sXV0kcYROOe3apqNPQ0p6PmLes3/mgKDgdc+uKwklcyhs47/jmo55WlkJzUkYAUZ3Adfc+1VCPKiZyuzbsZGBYjOHGCAOcdP5AVrk5t1Undhgv8v04/LNZFkpWUnqeB/u+/8ASui0+ye9eJVUHD5J9D3/AC/wraK0MJHQaVbxppcrMjZf5h/sjpyPXnNc2IfvpwecgjvnpXqb6PG+mLAmFVR84AwD9Poc1zc2htbXpDry4O0jndgg4z+GaxqXaRpRaRyE8exOCCCMj6f5I/Ko41Yrnp9a3dY0lo0MsYHlo2CP9kjIqPTtP32gbC8nNYvQ3ctD18XKqAxwQV5+v+TUV3dPbwA7VGfmOfX/AD/Kq0AKMsuzouSCcY7/AMsVTv7gyJIxZcc5OOfwH8vc128ulzypYn3uU4/xNbLfWu4ovmZz8vHH1/P865a8ju/7NE9xBMsaEIkxTAY88Z/CvWdA0PzPL1HU4VW33BbeOU4Dkngt/sj9a47x1qd7qkgF68ojDn7NHIMIq8qXGAMg44B5AxzXLXnFLlZ2Uk9zjNNvT9oUAuxyMIvJY+mKw/Ec+oXeqvPqNtNbyMAFjlQptUDGBn/Dqa0FBiugUUjPTIwa9I0+3uPiB4fn0fW5zLdKN9hcS9Y3A6ZwMg9//wBVctNwhPmOhrQ8WVsjnqMcVJzycn05NT6no99ouoS2Wo2z288Z2sjjBPuPUH1qqCvRs8ZrtWpkBzng81PbXrQMWxz71ArD0I96UjI+727HrVWHc6zTLzzDvc8EDHzHnJ68/wD6q3JbmMALBg5PMme3+H0xmvOI5GhYYO45yQOn51swawXcLjk8NgYH/wBes2hnQTN8r+UoZ27gc/T/AOvVTyBtcsc7R95PU/8A6j+NOhuFlQYzyRx6gev+FOllITafmIbr79KloVypKm5w5wrY5xyB9P8APeqghUDaTu5LdSM+9WZQzHDDOeoAxkdM1G5Ea7wq53c+5/woQ7oi+x+bN/q0LHqxbI/LtWdc2EULZRSyrnLH+I+nHQDitTznRSq/M7HHA5Oe/wD9b0qOSMSZL8KvCgD8vxoAw5IZJJRsz8xwOxH5dB7elRsSswCBiFbOG7/Wt5ohEuM4LDH4Z4x9etV5LfcuHGWGMDHT/PFNPUCjJfTBY/LLxSBQQ6H1Gev41dsr6NLbYGHmYyXY/MOQ2R7/AC/rUUlkjIGJKjaOPw71D9hZYDIx4f5ApHIHv9cDH1pNJ6F3aOm1DxJHe6fBCMK8p3SAEcYHT8zXOahciSBo8DO7dwapvaOpxjPHHHI9M0i2xH3htweOwJqY04x2ByubulGBLQK452Z6Dk1FpVxcW+ovJHczQwP94RsQGPT/ACaxiJY1YjeuMAg1bXU9Q8sRibagOVAUDPGPTkcdKbg27jTXUv6vEt2ypa5kfcScdv8AP60zSLVtPvne9WSCVQNuRtIOeevSs86hdnB3tjt0GKQ3tyV/1x4GcYpqLtYfNHc0fEM5v50KzSTFFJyzEgD8f6U0yxxWy7cEFazRcXGR+9cZGD7fpTCpaTkkluhzwfpQo2ViZSW6LVheG2vJZRjkHGTW3oHiaPT9TkkmbbFIhBxzyOlc3HBIzBQuWGeCM1ag0ySVsfcYHHzY645pyinuCk0tBbvVJLrUbm7kbJlcsBnOB0H5Cq00n2iMruI8vnHP4/0qymmlsjPzLgYp8dgFcHJBYEDcMZ7UKyskJu5nbztA2cHpmhIHkY7cda1Le0jQqGJCt03A5U+/41fWNVxx5Y+6R6+9MkxUsWLAkcDAPqDWhFaoFKP9wD5TgZz7H/IqT5juMnyuuPu9DyQTT1y7CNzgE4UnoPQ+4pjFgRoBsDZBzjnB/wDrGiNmWQqTnb69xUnltIhUoMDhs+v/AOv+dN3EvkjPGCccH/6/HNK4EgRCMAhkbvtxz/Q9/pUOzyAcNuXPX0qU5UH5t6cZPt1B/D9KhaUoSpHQ9M9cUXCwjSZ69fxyP/rVAZGDFgxUjjKnr9aR8DBToOQD29qQkE5J4NMQM7fe4IOeozUM86+WVCj14OKinkG7Axnp9ag5fqaEJjzIJRj5hz1PNJHuQ5Byex9KXCgAfrSM4IxyfeqFYlY5zIoYDPIzwD/hVZzz/hUgYKSvRW4OBSeWQSDj6UARhAxxgfiKsQR5Yqoycdhmnw24IAUZGevXFatrYGQ42bgePf8AKqQ5EtlAwXvkrgEc8+ldppifZLQJGBtOC3r749+h/CqFnprBBJtBbAwfXHata2iIVlBLLgHntkf/AKqd+hjLY7LRpMwqGlZl3DaWPuavShUmj81FOCdpI6jHH0PUfhWFpspWzjJz5g+Vsd/r/Wt1CLlA2TgKRtz9P/r/AJVcaaaOKWI5ZWKM+nRXsbqfvSJ8o+vY/jis/wDsr7N+7RBgc9elTLetaaq0btuVSDuxwVP/ANdf1rcNslziTg8YzWUqdzp9pbUr3EpW0VckkjGB6VBZ6Zd6rOkECkLkebIR8qDv+OM1Na2Fxq94Ibbayqcl2HyqO2R6nriuzs9PXStPNtCfMc8uxwCT64/Kt6k1GJ5+HoTq1OboV7/zCi28MeYv9XhRyy9xx26d+1eb+I0iL7VdPOVn+Zhk9Rxmu+v1vy/7sEg8HAzgfh0rktU0a/1GEpLazLt+YtHGev5V5NVOXQ+ghG2hxsdlFc3ccgeASKueeST/AIV1uiWscFyZDKGHysuEIwwJ/TpTLLw9fQYZLMgjAJMRy3+FbFpYXUZybeQL2+U1iou+pq7Ffx94Efxvo0V7ZmMatbriMvgCRc5KE9ueR+tfPeq6NqGi38thqFrLb3MRAaNx0zyCD3HuK+r9NaW3OCAgbg7iKy/Hvgm28aaMPLMK6jAMwTZ7ZyUJHY/zrupO0bM55o+VMAHPpwaUbicg8Vsajos+m39xY3MJiuIHKOh7Efz/APriqtvo97fTmG0tZZ3HO2JCSPr6Vrcgo9uB160AlDw3U46V1h+HHiZLeKaWySFZeULzoSw+gJqvJ8P/ABEiHbZLIB/clX+uKh1YLRsqzM6w1Eru3scnj61rRzA/MCGY8devp+tYF7p1/pU6pqFpPbMwyFkTbuH+z6irFjdkKC5BPPGOMA//AKqrRrQzaNyVyqn7u4nLE/lVUA7syKSoPfuxqMXbOyknKjBLEdW//Vmka4JIbOAo29e56/4VNhocG2uWXkjoT0z/APWFIshkcHGfmwuO3vTQu4BeePX0/wA5qSRxE22MYwPlyO54z+lFhpkvAJx94DBxzz2UfT/GoIY1IaQnjOEGM5P+efyqZQI7YBT8543Y4HY4/wA+tRyuFUsuFWPgY/T9OakoeVEiqGGF3ZI//V+NQ3ETHaCATngL0zTi5jWMMPmPb9T/AJ96kb5VIPUdQPeiwECW6qAOmeWxxz25qcQBBlSRk/MxGSABgYoQgSEMDk5Lc/n+tTKwIUsrfMMADq3r/Sk0CI2sYJ2EW045wM+vf+X51BNpsHl7uMsOAvOPX+ZrQCbxkkbeQSON2Dz+FSvBljxmTAPrildoGYiaXGEw4bcxyqj8hUMWnKGA2nIyDyPmHb+f8q6BBiQ7QWLEcgY5HQfrVaDZIxjK8BhtHp82P5GqTYrsonT4IXJcbwyhg4HQnA5HtSrYRrFuRcs2Sykcf55/SrxQhQH5YHYd3rmmRoUwFB+XLbT19ad2BSkgUbiqgLnkAfd/+tTim4EAkn06GrLspdiMlQOGHp7/AJ1GCCS6gDAO4Lzg96BkbBpGEg5OcNgUCIYbbgqDxj+dOAKyE7vlIDAj1I4qUhY41ZOBkbh2x0OPbofxosK6RCUDKCANwGcdiP8AH/GpkBeN0D7mTG1u+CeKjYeSoHTZnII57f5/KnhkFw4XsQV9WUkf1/nTC6HLGJFjdeN+cA9m7immHcrBsBMnnPKn39ulN3sFlUY671GO9PWVWZgSNr+v0oHcjDkR+YQPMQ7T+HHP5GmOy7885Dd+mOgP5UySTD5xw21jx1PINRPJuGAOgH48f/WoS1FcldgCpDEr9w59DxVfcWIyRu4JP+fc00ybT16k9frUZdV4XOMce/8Ak1QrilgpYc4H8qqT3BA2qeaWWYbzz19qrdCT17YpgOXJySfxp2D/AHaQrtAA6DvTwCy8kk+tADDkHk8UKMk5PNWIrYuTgcdBnqatRWaFgD9OOxp3SBlFI2cdCPqK0bTTpZsHaAB3q/BBHGrYTLD7uRnjvxVqFt6ks+3PT04o5kKzJLHTYFcFyWx1GRx71twRQIg8tQGB5xznv371lRI7JtQ5YcjH+elaUQEW2MDBCc4Gef8AHtSu2J6F+JJROWRDIpIbA/z/AJzWxGsQRJ14Vlwy4zVOzdo0D7QvygspHapnykTMp3AuTjtnFbQWlzza9Z83KjSttm9vJbI6n3GO1alq4VzHuDBx19fT+dYNk+JF8vDR8A+o9KvWx8sht+CuTkHjitoNHBXTVmw1SNvtMc+zdglWCjHXP8+BU2nXcsNmqJG8qgnBHb2NU9U1EJKV2kblB5Pp1z+eatWt1CsRzIFJOSG681m/iZ6VP3qauejaZpi6Pp2xcNKfmkb+8f8ACqd/PerAz20ccjE4J8zBPtzT7/USodmDiLdtBI4/zwaxL3XkZiyMI1HUA15tasr7nqU6cYKyRj6jr2v2Q+fR71s52sijB6fnXH6l4u1ma6hks7bUITG5LoIzhifXHB6V1Nx4rlRVh85y27aCzcdRn8AMc1Q1DxsixNHC8iyKwXhSBnI6565rmjUurXOjl7GZ/wAJb4lnCrDZXm/jJEJ/rV+21zxP5Z8zTbrG3JygH9azbnxxewaizF5fsu4b1CFdo+vr171YtNdaQpN9taaIElNzEnBxjg9COeKJSsrhZJmtaavrUs6J9jZc92kQf1rtdFmutwWaZY1bB+YjJ/WuDOvm4hMbt8rA/r/WltNVNs4Z5mlGerdcbefzPNQqqTve4nyvRGv8QPhnJ4huU1TSnjS/O1Jo5DtWQD+LPqOPr+VYNrYW+mI2m20UalGAlfZhnZeMkkZPOeOlegeHNXea2RJnLH+EcdKyvFmiiSQX9nGocZabZ95l4JIHQkfyzW1WbnTvEy5bPUzglnBEHvbmNE7PK+ATWnYPp93GTZ3FvOF4PlMG2/ka8R8a3X2vXZf3jNHHGqYJ4Vsc/rXPW17c6fdCe0uJYZgQVaNyp4qqFC8EwlKx9H3+iafqtqbS/tIbiE/wn+H3U9QfevCPGXhSTwnrKpAXfT7hv3Ep6gdSp9wfzGK9X8DeLX8RaPIbnb9ttSFmIAAdSOGA7Zwcj2pfHlimpeGL2Lyt8iJ5kZ7qRyMH16j8a1i3CVmEkpI8NScEKDwB8xwO5qVJBvz1PJH8v51SDhQcc8449AP/AK9TIxAXPJ6D34z/ADIroMUX1lATk7geOvUCmMxafeW+c881VYhAq9VUHI+nH9KVSWZSeCDj/wCvTCxoyzFREv8ACo5x6c4psuAqB8dmIHfvj8qroTJICRx/TtT5G3SArwOTipsJ3JlYm43ON23n+uP5CpgzAZ4ycuc+o4H8yaqRYXq2WJxn16Zp8j7txHUnaMegoaEtSVNoZ5JGyM5JBzgDJP6kGnxM0kpLMAw6n+7nnA/X86ibBUJzt6nH1p8bZQgkgcs57kGpsXexYiOQHGfvDB9MU6e4MWMMWZ+Tn1J4/TFVvtHlxYPJZcbcepqMSB59zEtt4Hp0o5QuXxMI2iJOAWA/X/61VrU78qvJV1B9fQ/rVfc0zxsWAQNu+uOB/KljlWEMWByWUtz70DLDSl4y5JG/5vxBz/IilebaUyRlhnP6c/nVVJSinn7oIx6dP6D9Kc2CSnYDA9vT+lCVxN21AnYwKj5Tzj1A4P6Utq481vbBx/e7fqKgdiOR1Jbg/TNIGxIdp5BDDn3osNNNDw2xyhxgdPqDxinLJvXkjAJQY7jHFJK4L7+mf54qFZArOo4zg5H+fen0E0T+arK2STgcZ/L+lQs7dc4fBUH06/8A1qhdyVLDvnP86RmYA446HP8AOrIaLInInOMc5P55qFpAJCOmfemtjz+/B6+1MlbAY445/wAKVikSM+5QQSSOD+dRs3zADr0phYbMAkEHFQGQlyM8jmmA55M5Ged2aiMoKnHTOePpUTOM/nUO85wBznpQOw/O6Rc+tPVfnyvYVEM8HPNWoUyPrQGw5Y+MNznPFTLGo4K5XvjtTUwTu7Yq0g2dznsf7tAMfGqgDIxkYJx3qaIFTgk7sZAqOOTcfujPQj1qaAgud+GOeSRwfr70hoswSNs3FcuDkMa0okHmgmMFXGSo7H1FZ8CxeawXlW5UE8itaEqkOGyVJwpGeKVwehONgCNGRGx449e1W4LaaVg5HIOce/fmoLK1Eqssigtn5XxWzDI0ESqSxIOCDzWsKbkebi8ZGlpcktreYyNCWGQp+Un+VV7u5CxMqkAN/nFE94sbJIARtIJK88VlXVxieRFysbYbafU9fwPb0rWTUY2ZwQ5q1RSWxa0y9uBcqGyfmAbJ6/X8x+VdUD8rndtwfmB6jjgj9a4vT3ZvL8terfK2MnHcfpXURXRZ9r5bDDDYBBHPX/PrSoPuaZl7sYtFfWo18tX+XzEHQH+X4U20dLi0ikJi5GBv64zxVLWbuExsvmbQByeemfvCp9Fcf2eNkMbjceXfBH69KHK8nY2w91RSZreKfEU9n50Za4a2jbdtJGFP0HvXFDxFPfECEtuc4CKdxz6e9YtxIkSLtllDuMt3HPvnI712NrYGz060t4okMr/MzqPvEjJJPoP6V4Ps+Z6n0SgpO0TM1uG50y0EtxcIJiQuyNiSAc9/qDxXNfbSzM0kjyN7tgA+1dXqUVvLpF9LdFpVhJMTE4JccZ9+p/CvPQxwP6nOa09mlsTVvB2RsC/kUHdM7p3DNnNEF8IlKRnC5zgGsm33yl1wW96sx2s0Sl3jl2jALFCMH0+tEoaGSbN2DUnC4U7cdMcVdtr1iQWzjsueK5xZdpwc+oIrQs5CxGCM+nvWEohzHpGgXrzTRIkoj3fLz0Brs7a++0AxltkikYbP3W/zxXk1lMYj1xleOcc+v/167Hwzd3Bv0ediyyE8v3GKVOVnZF8rkeTeKrF9L8S31s2ShkMsZPdG+YfiOn4VgnkkZ6V6H8WbXydXtZymNyvFyOu1sj9Hrzo8ZAPbnmvXpP3TGSszrfhrfSWnjW0gViI7qN4nUdD8pYfqor2aWHz4HhJDZyPrnNeK/DW2e48eaYEBxGZJGPoBG3P54r3G2/17k5CA4zWVb4kVDqfN9/bfZdSuLYEfu5nXH0NMUCPYODtAP45/+tU2qTLPrl9crnY07svvzUEhHl8YGe3p2reHwmUtwADHBHVQM/XmpoD83PPXofyqurbZlYd+AalDAbexGeKYIsKcED+VKpK7STknk/zpi4DY4z/9ajP3m9AaEPcFJDjkZzUjMpkEYY4HP6iqpY5Bz65I96bksp7Ekd+1FmLYuNJtUsAMnjB9v/10rPiEr03YBP41WDhpFB+6pz+ZFPjLyyNGi75DkKACcnPtRYNRztuKgdAcnHepWYBkHOdwB598fyp0+l6lp86RXun3NsWi3oJYyMqcEH9Pwqo0oZ2+9kAcHsaWj2FbXUt/eCEZG4ggdff+lV926N/m5D8/TJrsdD8BXuqadFfTXUdokuDCjLvZhjqRkYFU9f8Ah/reg2b3OxLyyJ3tLbbjsHfcpGR9eR71kqkHLlT1N/Zzte2hzWGCn+LK8j8CaexPmkMw6jOO9Vrdm82PhmJ4AA+8fb1p9yZrW5Ec8MkTBcgSLtJGeuDzitFYzexIzZiHGSCCBnsRRk7weMBCDnviow+Qw4xzjPcYpN4Ic/7GB+QqrELTQl3FVznuRUG47uucjn2pd5CkAY5pmdmfTuce9FirjnGBGCO5XPvimvICCvQv+lQGXjrzzgfif/rUTvlyQBkjAA+n/wBemDSLDvh2IHJJANViwbPJ2noD6U1nyVVj0Hzf1qN3+bngAfrQxJEhk+Qjvjr71Vd8Env0/KpMkBuQAefpUYGXA4IINA7EeC54qRYjknqasCLGNv8ACOQeaQKQSQOp5B7UXGK4BYgADI4FOjB2/wBKlIBUH1/Ooyh9eM9aEJkqHaw+bB7iplYj5ieO3tVdc+vTpUqHp0z2oYFjKtyo2jHrU0eAMEbs1XQsfr7VKm889qTKRdS4CAhgG/unPI/GrlrPlg+Cyg8rWUkZZuefer1vKInAdcgHrjn86SMqk7HSQTsFUKMAj5vX6Uk9w0K5zkDH1rOW8jZgTJs4+n0zVKW+LSMpkyO4PQ/SuqM+WNj56tQnWq+RpSakjqEAww755NRySjaNjHb/AHSeMVnKA/QqT6d6tKCyqNhDr7cEf/XrmlJtntUMNClFWNLSzIl0hjkV2U7ip4zXRfai8gzHtBGSwPQ1zNqRbhXTLY7df1q1cziM74ndVYZ2k962oy5Vdnl5ivazUYsraq4mvJgByCM7hnHY/hj+tbOjWyNpyb5VjIJGHUEn8656CX7Vdo7YOGAYDqRyef1/OvZvCWpaNa+Hbe3u3hhuIiyvvRcuc/e+6f8AIqYXbujvaUIKLdj5/us+YSSfX2rp7bxCdXe10+309A8SDLSS8BQADyBWFdRMrBSu4nj72D+VUVeS2ufMgleKRehQ4Iryoz0PUUmh2v3txdajKsyrH5DFBErZAI6nPqc1mKVJAYZ/3eMVaMQJLEsxJzlqb5QDBufxquZPcTld3Z6JpuiN4ftFiikM32hRLI2zgtjgfh/U13t5o9jOqaVcX++K5tyZGOMk9j7Y4PNed+EvEVpbaLLbanqXlmOT90rBiQmB0IB4zniqOu+LXufNg0+WURTJsllkA3OORgf3RyfeqUo2Onni4JGXqWltp2pTQiJ7uJT8kkR3DBHBBXjPqOxp9tpr2bq8hSdiFdYlPOCM/MO3pisuK5ltxMsUuFkXY4A7fj0qezhcnzNp4HylunrXPJmSlFJHTf2g8KBp7K3DIF2IV+boAD1yB1rW0e/jOq2cpuJF3P8AMHbcOvXP5VzUSPc3QaSRWPfIwMZ4FXbdWjvEjTDAYI43AH6fWsHLl1LdU1vjKBKulSjv5jc9vlSvJNoXDMec8D3r6A8Q6RBr1hJb6gilQA1syEqyMEI6/XHHoK8P0vTbjWNWttPtlZpZ3C/KM7AcEsfYAkmvWo1E1Ywqb3R6R8IdNW303V9ccEOQLSAN74ZiPXqo/Ouy1q/OleDdRuyRuSJtuT/ERtX69RVq20+0s7e20rTkZbG2G1ecls8kk9yev415X8VPE/2rUU0KzmRrW2AeYqch5T1XPt/PNZ/HUKS5Y6nBoVOSzAt375/zilOCrenHFVVcbgMnBOSac8nT2GQDXUlYw3Hrl5vQe9K0o+Xrux83v6fyqBWKxsWPDDBPtxV7SdLvNe1a2sLOJnuLiQIige/3ifQZJP0NNhY19C8Nat4ghll0+BWjt8eY8jhAM9Bk9T1/yRXRWfww8TXsMksNvB+6fYyvMoLH1X26V7Da+HdO8M6LbaVZBiqj5iRlpX4BYn8PwAArNutaaw1JLayb9yj5lfGSzfX04/SuCriXTm09jsp4ZTjpueNyfDvxalu840adgJCvlKR5nGOduc49DXd2/wAOdM0DR421awe+uLhE8yVsgRv12Ljpg8Z747V6hDfWs9t9rWLzpxjcsZ5B/wAKe2oxeTuvFVCSflXlR9eOtFSq5w0dmEafJLVXR4NqXw51X+25I7OOCKyI3I8twvyg4OD3OD7V23w++Hv9jh9R1Tynv2LoiqwKxJ/fB7sex4wPrXS6m2kG5Fy9yRJKRsjUZwOlaNpdNDCqbCY1Qs7HooHT8TXN9bqL93L7+pu6EGudaP8AAjWw1ZZ444r/AP0ZcbQi7XJ5yCTkbcfnXL+IPhxoet6q18UvbOSYgTG2ChXY8btuDgnuePpXQafrbSSlCDKxPOFywH4VqCeK0D3U6CF2yAqHJP1HQU6dfTToKpTd/eRRg8OQRvGpnnnEag7mYKPYcfStHyraOFoY7PEfKkMMDnqPaooLrTxIZljZXAO9ScEAd8dMc1RudXsrlvlQFVXhtxH8qTlCN5q12CjOVo66E0kVgGhskjijSFQLdFiBEDYxkMOh9xzXhXj63is7K0tlmE7JPIkbEfMig8r64ye/evZI9Utg6+VAzDqCrDj9K8z+LlrBZaLp5t1Vc3Tkhj824rkn3/8A1UsNVlUqJt9TSpH2dOS8jy/zSUAAz/XnNThx5bEZwSSapoWEaseNoOKmwRGq9zhSPavZPK0JkO1mzznHfp/nimTONyDv97P5n/Cm7v3x2n72ck0yXBK85z1oCw0NnPPbj6dB/KowcSEk/dXjnrSNIytkdRnp3qLgkdQDkdelAyTzPmbH3ic89Kaxy3J4A60hBR8/lg+9JgFuc/hQA9MkkE5GOtOAGfQ00Dg59MD3qUAbBz14Oe1ICTzNrgng8ZI7Usj5GSBnPbvTOcYcY96jZjtHPB46UAP80qAeSB61Iku8bfTmqzMQOn4GnowBGOtNCZbUZOD0HIp4Qqu09PQ1Gr4YE9v0qZXDP/Imhgh8Ry3TB96sZKgn1NRJEzcgfrUp3YBJBx7VO5MpqI5g25cED0p/mswIJw3cdKjyAAd3/wBambt+fn3H2qrpHO6Upu5K87g7cdevHShF3ff49DjP60gYng5b3zVmCJSx54YcipcrmsKSgtSxAiFgu7IwMNnBFawH2ONX83eMYAPBxVBD5TfNnB6e9V55W2MAxLr90VSj3OXE4hJckdyw91mXckhDemB/kimXOp+ZCUdBuU/KQeoqpCVdiX6EZDgcfjU0ILShGjUk8H5cEf4/hVSl0MqOHs+aoi7okiPKGKpgkhvVeeorvrWTdACGReTwzgVxemxiKRMDa+ckEcYP+elb32gLwJEA9D2rtoRSjdnjZpiJSnyx2ORuIZPtDStnfuzlaPsUc67wTvwS2PXNdBLZjJJUH0zVFrJozwSD3xXycanQ+0cTI/ss84bB6jIyKhfTZQTjkA49K3o13duQMfj7UoQAk46n0q/aE2ObbTJ3GMAYPNW49IZh8z9vSttYs9QCe3NW4rcEdAcdqUqgcpiR6JHtyxduxrQTTxtAxlR0A6Vqx2+MggnPbNWY7cDggHH4Vk6gOL6GQthtDeUu1m/OtHQdOdtVieQblBzz29K0I7QbwwUnnjntW7pVmVmVggB6/qKV3JjsIJEGoXMcjgKuCMjqeB+HANZ3hrwzp+hyXEmlxSmSY7TJLgsq/wB0YA/xPr2q5b2rXV7M+fkLkA+vNY3i74g2Phm2m07TGW51UqVLjBSAkYyfU9OOff0rspc7k+UbslqXPHni238I6NJb282dWul/dADcY1PBc/gDj1OPevAHmZ3eR23SE55OefU0+/vLnULyS7vLiW4uJGy0kjbmP41VPYc5PWvRpwUFYybuTI4OcnPf605mJ6D5RUYTaATwv1610vhnwP4h8VJJLpOntPFGdpkLqiA+mWI5/OtBGAE3kCQ8V6H8GprWHxtNNcFUlW0k+zhj1bK5x77d1LB8FPGk04SS2tbdSP8AWPcAgf8AfOSfy/KvUNE+GWleGxbm3iilv0YE3U672kGOdmflTvjHPvWdR+7YqK11NmXU/s1k9y7g3MwzGPRc4GK46ZHnlaUMQefxrY1jTJXOyGSRVj4jjbnAzwKwZ7h9PgeVlW4cDAXOACeMn8ewz714Nao+blaPZoQjy3Raju7iCPb57Kme305qe410yI3kTfMwUMxB4AFctPrA8rexOzvgZyR6Vnz6q8g3wgAkAfNUq7Vjb2V2bdxqBW8hWaVeZAhJ7ZPJ9q9VuEiXSWhRtpK4JHXNfPV1NcTSYdlLMw616rp2o38uj2L3eHaaIMWzg5xzx9CKqCUPeFiKbcUjQtGTTrBJkiDSyMRx04OBn16moFvJbyRmncbgDjPqPTHFRxarFaDyWUTRs+QJONv0/Wmy6rFIx8iJYlHXeoOfp71hOTsopkJO7bQsF3NDIZgFBPB7gjvROIZP9MgAQA/vFAwB747VSnv3djG+Nw7KMY6f40sN2HidCB8y8t9eKtNLQHF7l7wykN6+xiQNxANYnxI+GXiXxLqEd1ZX1rLZIu2K3clDHnqfQknv16DtXYaBGltFuMCLgZX+8fSt5bpfLCeW/P8ACFzg+td2Bgl73U4sXNt2R84z/CbxrbkwnS0k2nP7udDn6ZIrPf4f+LotxOg3rkEjESCQ/wDjpNfWEAlch2Ur6k9amaAFSDgjsCOBXq3lujgdlofFV3Y3umvtvbO4tpCwAWaJkPX3FU5HIbbnvnA7V9t3Wn219CYL22guYiuCkqBh+Rr5r+NXhLTfDXiKyl0m2S1t7yFneFCcBw2CQOwOV4HHBqhWPNSSDikKjjB4/wA5pQMqWB46UgDJ74P6U7BcOxHXH+RQOVxnvQ2d25cD+lO25O4dT1+tJANDEN0//VU6kbMEjB4NV8+3Q1KuCM8jn8qYEoYgc5Iz0qKUDB2gn2p57ANhs+vX0pyqWGGXJBpiuVc4j9f6U9Gy4PHrgUjqVYnGF+lKi8D07GkMufdxjO3oDU0bLu+YjkVVD4xzg/1pxz2bj2p3JaNNXBjILY9D70iyMv3xz2NZqSEHBk+mamW4O3DHcv0qW7Eez1uy2zFsbSPTApqwOGGB1PIqDjIIOOKsJdCJF3HnrnqDS5WW5qJdgj2oW2g47E4NOkeJH3K2AetU3ufNO6IYquJiWIkGKuKSOGrKc3ZGk0ryDaDyoyCe9VjM4kDMpyD1zTEf5eN2R6c/5FOVTMctgE9wP85ob7GlHDqOstWWYCd+1VUqecDOD9K2rK0QlduTInQA4P1+lZMELIyuq5HTIrVaY2+0jPy85A6VpTj1ZzY2u/4dPdmiymNSu7DryQR1H0qFtUjgPlyLGxHdmwSKyr/WGC70+ZD+BX8+fwrKbUbjcep9wcf0NVOrfSJz4bL3P3qnU9SNsVkxjAH60yexDKRsAY+lbd1bgPuAxjqAKiZNy7QAARxmvm3A+nOVnsACCEGR0x1oS2ZhtCAMecE9a6b7Krfe6HpUf2NfUD61DhIVjFjsT/d+vFX4bIjovPatOCDaMkZWr8VuOoAxTVNsTRkR2Df3c1ZjsxHklelaqQgck/pT/KBY8e2AKp0rIRQtUAfDoFHUcVtWzQw2dxdSMI4Y0JZmOAB6n0qskAQKcAn2rn/ilZyjwA3lyEFblZGXdjeuduD69c49q0o03zWYmuxxniv4lPLCbLw401tCciS6AAaTthepA9+v0rzJgRyxyexpzFlXcTuJ6ewpgXJJ9OletCEYbGLbYrJhB60ttbSzOFjjeZjnCoMnjmmyHYvJFeofC7TJAy3ghjcs+w7zjZnHX+XrzVN2BHEJ4a1uaITLpF60ZHDC3YjHT09eK90+Cl3e2WiXOj6pYXVoI5DPBJJCyhlbhhk98j8jXqltAYrdEGPlGOKlZB0xTtcZHtgb+JDzk8jrTkt4kyVjUZbPTv61UubDe26FlU91PQ/4VQMkkL7HLxHOODwal3QLUq+J1aAF4EPmyLgFcZBryzUpHDNJNKA2cHJ5z3/znvXrU8LTAea7OAP4+R+tZV94c068iZHs7UZXbuECg/XI715mIwkp1HJbHoYfExhG0tzxi8a3y62+5VPKbyMgfSqrzohPrxyK9Xb4f6MUZfJ57HJ4/DNVrj4eaZJarCscSurZM6FgxHPHXH6Vn9VkjrWNpnnGkWB1jX7O1U/LLMqnjkDPPP0Br2rX9G03SdCE1lb+X5DLg7yQFyAep6YrA0DwbH4f1mHUYmM3lZ2xvJjkjHXaa6rUbma90ya2+zoDKjIwaTIAI6529c+1a06HuvmRhicRztcjOAuLgM7OqqEKZOB2yf8A9VUEvwzEM45PQdK3ZfCMsiqGuEGAFJZi2Rn0wtXdP8J2diG3mOcuuz95EGwPUZzg+9cMcHO92jdYmmlY5hrnui9OOc9KsQ3IUgkHGcZ6f5/+tXXxaDpcZLLZ22SMENHkfgKR/Dumucm2UHOfk4A79K0eBk+pP1yHY2/DaWs2mI86Ru5c4LDPA9K3RPaxoSHjQDgk8f4VykWnqihI57lY8nCLMwXn2FXINNiUhvKTJ7sMn8zXp0IOnFKx51Vqcr3NxtUtF6S7z/sAt/KkTUY3+5HKfqAP61WhsyeAo474q7HaKg+Y5yMYxXQuZ9TB8py3jHx5pnhKKJ7+4ZHlUmOCNd0r/TsBnjJwPrivmrxh4v1DxprLahe7URQUggXkRJ6Z6k+pP+FfWtz4f0i8nNxdaVZTzN1eWBWb8SQc0z/hFvD4H/IC0z/wEj/wqrdxNnxaAehGCT0pVXLYOcHivtL/AIRjQccaLpwHoLSP/wCJpP8AhF/D55Oh6Zn1NpH/APE07CsfFewhuRx0JpykqRnH19a+0x4b0BeRommD6Wkf+FO/sHRV4Gk2HH/Tsn+FFgPipwGyAQrD3pi57Hp2B6e9fbaaTpecDTbMf9u6/wCFSLpWnJ0sbQfSFR/SiwHxMqlj93OOSD/jVyKLfxyT68819nDT7EdLO2H/AGyFD2NqVKrbwKT/ALAH8qBNHxVdwsh3FSBUMRC9clfSvpLx3oSObt2jAiMWVQrkEkEEDnr6dwfrXzrew+Rcum5XCsQHTo47HH0pJ3KtpcgDKfkIOD0NA4IUMOeme9MdAVyMEU2Mb/lPIpkslAXPzKD7Z6VPEiHgk+31quEOAQT+dSo6jhlx+PWgLlngHdu+vvUbnJ6/KaATgZFRsMnqMUOJnKKYx2aM7c89iKWLezj5gc9Qe9Iy5GD07Gp41XaCwBA79KuxDcYou26k4bBYdODyK2YrZVjB2YJ6c8mqFowTBVhhhwGFTG9eIEKzA55Dc1cYpbnFVrzbtAvwFVhY7TyecDpVG7uw8LJkk+uf85qBtTJXAG0EYOTVJpQ8hIbqecdCaJySVkZ4fDS5/aTI280tkkc9cDH5j+tXIoJJIwQoI6ffK1JbW7P8ykMueQRx+daMdtlfkAxnt0qYxb1O2piIUtEe33VuCSccmsx4DkYOAK3opotRs4byHIiuEEi57Z5xn9PwNULmEqx6149SHK7HpU588UzKMe58fTpT9mSCcc+tOJAOR19+KYr4GB0HGPSosaEoBJX+gq2qYGBjIqqr4PXv6damSTAxWnKkSWlHzYJBqUKAMdeO1Vo5M9qtpzxnAp2QEsEJZwAOcjArxz4m+PovEEv9j6csi2lvKVeUtxMV4BA7LnJz349K9B8da+3hzwjPPC6rdXJ8iHJwRuHzN+Az+OK+cpHBHBHTP+fxzXRQgtzKbtohXJbCqev8qUsAPTHUCoPMKgBevem7izBRzz+ddZmlY1NE0qfWtWgtIFYvI4XIGdufX/PXHrX1N4C8J2+iaFbrlZHDFg/I3cnnr1PXNeZfCTwX52dRuIn3u3lrz8m3+J/fPKj86+gI0VI1UdAPSklcpC7go9B7UbumDTsLnrSHb0yKYhuRnlhSHa4w2D7GlITPajCdiKAKkmnRPllAjJ/55nH6Vnzw3FvN5bYkQjIfbj863RgE4YUmARgEGk1cadjnmcf3SD7HNMLKccEAe1dC9vE+d8aNn2qJtPtGU5hCipcB8xz5CAdT/OomxztPH0roG0q1bPDjP+1WTe2scFyyqzbcAgGocRpopc5ycmhCgOWDH0xQVXJ5b6VpaVaQXEjeYu7A6E1KTuUymJIl6RH8TUizZxtiX65zXQrZW6jiFB+FSCJUGFQAewrTlZF0YcQmc8Jx/u4rStoGQ7pGB9uuKtGINgYIFBjHTANOKsJu4uUJxkUu1T6UmCBwBn6UhJ79asQ8IB/+ugj3zTQxA5zSbyRnH1oACBn72Pxo4HWlG3v1obBGSaAGlwD0yKTzCei0/amM5zShVzwKQ9CHMh9fypwQkcnmpcAc0DOOOlAiPysdWpdg68mnEEe9AznpTAp31pFeW0sToPnUr82cDNfNvxK8KNYTvqEe1UdwDHtz82OcN3HByPcHvX08VypzXF+LtDS5s7hCSschVtw6xsvRh7ev0NS1YLnyYWCsVOeM/U0HCncvQ9cVpeItMl0zVZrYptEbfKenB7f0/GsXcygc/hTWqAuK44K9PapAN3OePUCqcbYHBFTI+3p19DTQrFkMo4Yk+9MYopyuPpimNtcA9PrTSnIwT9RTTZm0hfN5wyg/WnJLhuCcEUxlK8q3X1pFypBXgn34p6mTjdk32o4KlmAPTHrSidz8rNuA655z+NQxhWbDFvwqytqGbKNuH0p7oXMojkOW29AejE5q5aWsnmDDg56kcD/61Ot4FHI/EYrRgMaKCWIPYA801BdTmq4ppNRLEJMXDYY0/wC1IpIxx781Ejo0o3McEj5dp5q2IQ3KHauemTW1rHA6cqjuz0D4a619p0+fRJuGtsz2rHjdGT8wx7HB/wCBV112m5T/AHj6DpWxpvhTRtKuDNY2UcJKFSVUZ5PIzjOOB+VZmsFLd5hDINyEYX+92OPpXk4n3nzWPpKEXCPKc7OCO/B71VaXgcj0qpdajIsvzIevOBWY2sEEhkIwTtri5jqOgE4zleRUsU/sPT6Vzaaqm5Q4YLkZI/wq4uqwlOPM3A/LkdqrnFY6JJckAMD9a0rNDLKqk4yM81y0OpliPlY5/irq/DrQ3kmHd0kC529mHsaIy5tBM5Xxh8Mdb8Za8lx9vitrKGPZBG0Rbbxkk84yT/IVjw/s+yuP32rXGf8AZt0A/wDQzXvFuQsSpkkKMAmpxXowTSSMG9Twtv2drXylK6zd7z1HlocfqKis/wBn3yL6GWTWJngWQF1a2UEgHoCHIr3nH1oq7skr2dpb2kIihiCKMcBevGKsnBpu5upo+Y/SmmwFxTSyg8kD8aXaQCcZFUNU0e21e3WG6DkKdylHKEH6g0m3bQC7vjK5DAj1zQduOlc1e+F7prRYbPWLiNUUIFlAPA6ZYYJ/HNZdtp3ijT8gEyqP4km3k/UHH5VjOvOP2Skl3O6xjsfxpa5u31rUIF23tnIpHcLW1aX8d39wsRjqQaqFeMg5S4GAHJpd69SeKiLgOMnPoafkkdTWydyRdynHNYGrkG6OOm0c1uZ/vZ/Gue1c7bhvT/6wpS2GjPUkhiD90Z571saIcTOv+zWEpBPB+prY0gkXBx3FZLct7HQg8Um8+lRjzB0xR8/dl/OtiCTLelAz61GA2fvClwQT84zTQiTn3/KgYxz1+lMDH+8KN+P4hQBIaMVH5g/vCjefVaAJNozTdoJzim7/AHFKGOOMUAO2D1o2+hoDA9SKUdKAGkZ/+tR8wHqacetGRQA35j3xSbiOeSafSDFADQ+e3HrUU8KzptYDjnHrUwxjFIcdB1oA8b8ffDt7q8hmtImkwhjZBx5ijoAezYOfcj3xXh+reHbnT5JNqsQvPK4xX2jJCJNu4Zwc5P0rhfEPga11SO3xCDIjsCASC3p+eBn6D3FS1bYD5NKOgyVbB6VMpJH8q9l1D4S3C290UtC04lLJtYYccc9PqCPoR3FcVqHgHU7WVkWB94J+Q8MRyeh5z16dcE0c3cDkskHrQHZOh+X0q++h6luIFrK2M5UIcjnj8PeqUkM0DFZY3jI4IZcYqrroJoN7AZXDCkEhPy7cjqeaahUHnP4jip0hb7wOU6MM8VSuZuERvmKrnhl9xzU8N0Q2FKt9BUQt03g/Mcdi204+tWokwUKTzDOOCQQKZDpxZeQyzxjcNrfwgY5/nUsHmh9rKQM/x4P+fyqxa6fcTSGON9xPZRkn8F/rXYaR4AvL+ULMJdvqBjHtgjrVXMvYx7HORRO0QYIuw8/K+Cce1atrpk0sAcwscn+6zY/EYr1LQPhdp1vtnvFkdhztLnH5dK7q00fTrG2WCCzjWNegxn+dJzNIUGR310IbdlQ4YD8q43UJEOcDAwAe/OOT/OpNZ1z7Hb77qCfzWUEpEjP9eQCCM1x8Wv315dSRSaVepDxsl8rke5HpXm1J3PQjGw7UIw7b1+Vh7dayGRTkYJ/WtS6sNYk5jtZiOfw96zLrSdeiI26e5Pcl1A/nXMkaESxplvl4PPNWY41OVxz3qD+xtfbISBBgdDIKkh0TXXGWUJzjBbrVct+gXNK1QcbR3xXSaPILaQOGw4zkelcgNC8SfbN++EQZChQ2fx+tbtpY6tEVLhPQ/Oef0pxjZ3Qro7621VJsRiQeZjOK6BPmQMCeRmvM7Cxu4rr7VO8m7JCoHO1R6dB+NdQmt3oi2LFHkDAPNdVOb+0ZTj2Omx70hBx2rmDq2ot0lUeuEFRf2hqH8VyefoPyrXnSI5GdXj1/KlyD0X865A6hdjIa8Yf8DqGXUV/5a3zfjIaXONQZ2jSqpwzovsTUL3tooy0yDHvXDNqmnxks10GP0Jpp1zTB0Zjj2NHONUztTq9kAP3mQT2U1C2tWYxy5B6YSuQGu2TfcRifp0qzFfLKQVhAH+1gVPMPk8jpDrVu3RJSM91H+NPS4eeNjb8L6Fen+NZVriTBkkjQdwoyf6VsQz28KbY3pqN3cT0H2lrKp82dy0h9f8KtYYYxg1DHdb+QQamVzjmtY2RAHkHI4Fcrr08nnq9siyAkh9zY+mK2r+9/dOsedqnDt/T8a5u7lDzFgDt9D2NTJ9BxWpQW8uQSfsqtxjlh+PbitrS5pFZXK7TnBGc4rFaVQ4PJq5bXBjYc5FZdTTc7MRM2Dv4oMDf36js7pZ4NyEkDgjuDVneD1NbqzRk9CEwOOjc/Wm+Sw5aTmrBb0PNMOT707AiPy+PvnNL5Yx94mpNhIHFLtIXgDNFguRiMHt+dSbVHalC++aXy8iiwMaAnTFOyADQUHHpQFAPA4oQhN3oKAxI6Zp+B9KBimAc+lIc049aTNACYODk9aQoDTxg0YoAaBhelKAMehpaM0AIaZsXJJ7jFSZ9qTNAED2sbksV59c1Tu9Gs70ETQq27GR0yQcgj0IPOetXjcxKcFh+FM+1RHufypaXHZ7nI3/w802a4+0wLhyfmRgMP65IH6/T0rnvG/gKz/wCEM1OS3tY1nigMgb7zfL82M/QGvUVnjZtqtz6Him3UMdzbywTJvikUo6nupGCKXKr6BqfGSWSADeoLDPNa2h+H5dc1BLO1wmRvdm6Ko7/0x3NaOq6BdWXii60aKMvNHO0aqT1Xqp/755r0Xw3pEOkQRWsITzSM3EoHLt3/AAHatYq5EYOTJ9K+E2g3QkimSR1VVKOHIJJ6kjofwrct/g54atG3Qxtk/ez3PrnqK6jw3bPHaPNIoXzWynrt7VuUpLWxbstDmtM8HaXpw8tLOIw8ADJNb9vaw2y7YY1QZzwKnIxQOlKxNhMc570uKKKBnnj6lpseQ14gHThhzULa9pEWS16vHqwrzxPASc79Smf6Cp4vAVkCPMuJ39csBXH8josu52MnizQYut0P8arP480CMY3MwHpXPp4J0tcZjkf/AIFVkeEtNUgJp+7jH3Sfxp3HaPcvP8R9GXG2ByD9P8ahb4l6eSfLtH+nFNXw1AoATSjx6W55/Snjw7NkCPSJD34t/wD61GvQLIrv8RwxxHZOc+/eo28e3bgeXahT05atAeG74/c0iZc/9M6mTwbqcmAbJUGOrECk+Yq8DGbxfqbfMoRO3JqFvE+psQTeIuOQRXUjwJeMMloV9sEn86lj+HkxwGliC46gHNHLJhzQRxUmuX7DnUJB14Gc1Xa+vpCf9KumznoSP616Inw6lxzdRZzniM1bj8A7eWuR/wABjFPkkL2kTzIm6faBLcHvgmpDaXOw/wCsL4PvivVU8EW+f3ksjfQAf0qzH4NsQ2Srt9Wo9lIXtoo8iSznb+KTd6+lX7WxkXbuYntk16unhXT14+zof97Jq1H4f09Rj7NEceq0/YsPbo81gTaoJwDWpAzBR+8wK7oaRYr0tIP++BUq2Nsn3YIl9wgFNUX1JdVHL22WAG84PrWvaW29hu+6K1VgjH8IH6U5sKB/Q1fJYhzuQtLDaqDIVXP3R3/AVUnuhO7feSNRz6n2qK+sEnvorowpK8QwoZyB1zVW4utXht5Rb2ETSkjy2Qr8o9/1qZTa6DUb7C6ldAxRwxlURV3bc5P41iO6nnPfNOI8V3pIezhVf+msoA/LFINC1uU/vILGMZ5xJuJ+vy1m532KULFYIgOQ2c+pqWNgCc/nUyeHdRGdz2mT7Nx+lXYfD17kZltgg9IzmjfoGiHWOoNayAgk54256108MxdFbyiMjoa59PD98rbluokGcjbGeP1rVgt9SjK+ZeCQD+HysA/rWsHJENI0i4HJBFG8Y71XWO4Z90zgrjAVRjFSeUfStFdkD/MWnbx2qMQnvxTvKxT1AerD0pd3PSmeX704LjvT1EG8Uu4HpSbaCooAXg9aBwabtyKNvvQA/ijKgVGUXPU0GNTQBJuX1FRNOqjuT6Cgoq8gUbVx6UARPcykgJCR7saFluMciP61KFBHSlwPSkl3Y7rsRq0h6lcewprRFhl3Zh6bsVIwwMgCmEEnqMfSgLkf2eMMTtx+NKIo/Y1Jt45NGwZ60aBcrywJJjb8pB7U2OZraUW8yk7vusTx9KsEhWz/ADqlKJZd8borIx4YPyv4VLdhrXQ898X6Xb2ni+51HBa4uYUy3TaFG04x67c/kKu+H7I380Ue4hX5bA7A5P8Ah+NJ4tSZzakxs86boiAud2Dkfoa2fBFpJCkss0TxnaEQOhXI5JPP5Vun7t0a7ROvVQqqqjAUYA9qkHSmrTs1BgHajNHajFABS4poyKN9IDPFhbjpEn/fIpws4l5ES5+lONxFGOXAHuDxTjcIejgDrntSHdgsCjoo/CneX7UBwMHduHtStIAu4kAU7iuGwA5xj6UbewFN8w7eu4+wpN7jlsD6UDJQp6Um04wOfaoxKzPgA49afuYdsUCsPC8entRtHQGmA+pNOyOu3NAxwGRzSgc1GWwchOaPNbP3KBEnGfpRuJHSmec+PuCk819uMUASDJPX9KU5PAqINJnBo3kHrQBKA3cZ+tNKEg5NM805xxR5rE9AfWgBSoPG6gopGCw57Yppye2KFUr0z60rAL5C55z+dSKirxTORSgkGmgHhU9BShV9h+FR78HpimmXGTjv+dAyfaD0o4AxkVX8/wCYjjI9Dk0ecoJ7HvmgRYz/ALWaTIHORVVpgSSGp3mMR2x6GgCct7ZoL4xwv0zUQK7eTQGjXJByR7UATBs9qXdj0qIOpo8xRQBLvXuaAwPeovNjUEk4+tM+0R7chsj1oAsbhRuFVvOU9BR5wFAFjINHHrVcTjvil80dc0AT5X1o+X3qqZcngUn2jHX+VAFskUuQB1FUvtQI4NMa556igC/kf3qTI9aoG4A4zknoB3pDccfMw4/gB5oA0Cw55FM+XrmqfmkqOcD0700XBHHGKQF0gD+MUmR/eFUJ9Qhtk3zuFU9MnqfaseS9utXcRW6tHAPvMP4qTaRSi2bsl5bh9nmBm6YQbqkjUN82GHPAaqmn6fDaKSSS7HJLNk1pgLtOMYpK7HJJbHKaleGHWWty20SQhwfQg4OPwNS2mprbXEFs+AzJ3PI71jfEe6m0NLDWIoxI0c4TB+6wZTwfy/WvP4fGDar4riuSgiDsBsDZA4wea0grsq10e+Ry7hn1qQEVh2t393LDkDGK14ZNw61TiZFjNGaaKWpAWmnrS5oPWgChK6umFIDHn5qqTxRyrtmG4EbWwCeM+1c1Z3M00A3SMN75O0kdsn86vWFzLMwDNgbiMD2rO5drG2qqvCgxgdRn+malj1G0eN2hk3qp+bapPNYN5dSwSKEbHHWsddXu7mRYnZQnJIVcZOCc/oKBqJ232yOV/lzxx1p/moh9vpXOyXDQxrsCj8KWO9nYkM2RT5ieVnQG8jA64NNN+AeoI65xXNTXkwk27hjr0pUu5iwXcMAelDkOx0q6incA08X0fXIFclJeShyAR+VC3UrEZalzhy6HX/bY8dc/Sk+2xH+LH4Vx7XMygFZGHfikTUrpmGX/AEo5wcDsPtiAnn8c0G7T1ya5ZbyZuSR+VNnvJ4/utx6U+YFE6r7Ync4phvIz0Oa5gX07RhsjJx2pUupTLgtwB0o5g5TqBcqew/E04Tp/fA+hrl2vZsEbhTGv51AKsB68daL2DlOsNwg4VgaXzx028muSiv53ZQWGD6CqaazeDzEVlVVfGAKOYSi7nd+cAOmT3H/16hF9F5rRM+JFGSoHPPTiuN0/W725WIu6jduDYHXHStFL2VnMRC7GDEjr0FO6DlOhF0gADyfeyQSMcVD/AGlbsSPOj+U4wOv5Vy9pdyXupXto4VI4F3KUyD1xT7+5lt5jGjllxtw3P+elLmGonStNnhWCM394YOPpSx4RSTMWz1Y/pWBYt5wEjgF2PLdT0z3qSS7lRgoxgn0ouI3lmtour8nnPWlF7Djg89q5l7yYdx1x0qNryZecgkeoo5h8p1f2hcc4x9aRryNRgMB9a5P7dcM3L0w3k2PvdqXOPlOqa9Qc7x+VMN+ucbv6VzBmfG/PNPMjCJW3HLHBp3DlOha63EbmAFKJkPU4x3z1rCeZ0VcNncOc0qSuwZieRxRcmxvfao1OAw+o5pRcA/xAdqxPMZU+U457VGs8m5hu4A4FHMPlNw3O44A4qP7Uc8cVm/aZVQEN+lKJncbieTRcfKaBvcAEnioZdVgQ/NIBz0qkZGYMTzis+QhpNxUZBqW2OxsLdtN8yEhMfeIqVJS7Dblh3btWPIWBjAYjJxwelWLqRrYskTFVVgMDvkd6dxPTQ2A4U/KQT03d6EUFi7PjvxWUZ5I7XeG5x3pkd3NMViZvkPJAGKdxWNZrjzHKrkKOrVDeapbWMRd5Mtj5V7moLhzBZyPHwVGQO1crEzajqQjuHJVxlscZ9qiU7FRjc0keTVrkS3U8aRL0X1rqrWGO3jAWUvkZyD/KuRgtIlvfLAOAM9ea27ktBcFI2IVTgfhULXVmjXQ1JJ04VXz9aiGrCKTazjHp3rGlnkcAk84zxVSQb2WVidx4NU2yeVHQa3YWPinR5tOuXJilA5RsFGHIYfQ4P5180PHcaF4r+wzY861vBE3oSG2mvoHSppBdFQ3y5K49jXjHj2BI/ivc7RjfPDIfqVGf5VpSk7iatoey2t3mQAEYxxXUWE2+POea8/hlZWQjHOK6/TJW2J79a6WiJG8HwcA08EnrVdDkZqYfdzWZBJniimr1pwFSB//Z;" vertex="1" parent="1">
          <mxGeometry x="10" y="20" width="200" height="200" as="geometry" />
        </mxCell>
        <mxCell id="2tCaVoyVuN92s-LVc2MF-2" value="" style="shape=flexArrow;endArrow=classic;html=1;rounded=0;exitX=1;exitY=0.5;exitDx=0;exitDy=0;fillColor=#FF9933;fillStyle=zigzag-line;" edge="1" parent="1" source="2tCaVoyVuN92s-LVc2MF-1">
          <mxGeometry width="50" height="50" relative="1" as="geometry">
            <mxPoint x="450" y="250" as="sourcePoint" />
            <mxPoint x="380" y="120" as="targetPoint" />
          </mxGeometry>
        </mxCell>
        <mxCell id="2tCaVoyVuN92s-LVc2MF-3" value="" style="shape=image;verticalLabelPosition=bottom;labelBackgroundColor=default;verticalAlign=top;aspect=fixed;imageAspect=0;image=data:image/png,iVBORw0KGgoAAAANSUhEUgAAAQAAAAEACAYAAABccqhmAAAABHNCSVQICAgIfAhkiAAAExtJREFUeNrt3X1wXNV9xvH9w15ZWpkQY0hSQ0kCoUnTNAxNaJh2SJp2CJkwDQMzSQiZtAllCBlbtl4sbEu2bFmWbMsvvNiYYmNTXuxAiF8wMTEGbF4CdvBbwaaKg/UurbRaaXe1Wu1K+3J6zxUysqyX1V559957vmfmmWEwMMy953zuOfee/R2HY5TWvcYx01859d5A1ZQX/VVTz2gJaRGEENNHjtU/+6qcL8kxLMeyI9nWUubI0f7Fpdp/oJsLSYgtEtQe5GVt1Q7XmIO/c1X2ldo/fJQLRogt876vatrnRxz88g/8VU43F4kQ+0ab3bf6KqZdfd7g9yx15Gp/+AEXiBAlcrxpnSN7yNPfWc5FIUSdBKqmLNYHf7DScbn2N3q4KIQolUBgnWOGw79y6n1cDEIUTOXUexz6t0IuBiEqLgN2O7S/+AsXgxAl82cH639ClE2Pg4tAiLoBAEIAgBACAIQQACCEAAAhBAAIIQBACAEAQggAEEIAgBACAIQQACCEAAAhBAAIIQBACAEAQggAEEIAgBACAOTCVE8XPTu+L3pfvl+E3yoXfccfE30nNls2kXdXid4D+SK080ci8NAs7i8AkJHSs+NW0V+zUyT6gsK2LREXseZ3RO/+POFf7eK+AwAJPnGDiNYdEKq1uK9OhHbfTR8AAHUT2nWXSPSHhMqt78QWZgMAoF7CB0vknFjQhIjWHxSB6kvoFwCgyJN/548Y/MNnAqdf0K6Nk/4BADZf82/+ukhEexnxI7TgviL6CADYO9GzLzPSR3sxGAkK78or6ScAYNNPfc/+K6N8nBZ4/RHhWZJFfwEA+6X/9A5G+HizgN6AaJg3Q3SUgQAA2CmrckQi3MUIT6K5H7lN1M/OBQEAsNH0/+nvMLKTXQa89pCo0wCom5MrvMtAAADs8Olv738yspNsoRO7BwAYRGApCACA5Tf+LGRkJ9kitUc+AUBL/RwXMwEAsHYi71YzspNs/Z6z5wGgI5DnEp3lbBQCAKsCcHgNIzvZrcEdtRcAINMwV0NgOQgAAAAoCQAIAAAAKA6AjkAeCAAAACgLwMBMIFd0VYAAAACAkgB8ggB9CwAAQEkAZBrnuYQPBAAAANQEYBABlgMAAACKAqAjkK/NBFaAAAAAgJIAgAAAAIDiAMg0FeQIXyUIAAAAKAkACAAAACgOgI5AYY7wV9LvAAAAlARAprlQzgToewAAAEoCoCMwHwQAAACUBUBHoEhDgD4IAACgJgAyLcW8EwAAAFAWgAEEsumLAAAAqgJwDgFmAgAAAGoCION+gJkAAACAsgDItC4AAQAAAGUB0GcCi0AAAABAWQBk2hRHAAAAQGkAdARKsgGAAICqAMjTh9pLpwEAAQAlAVAYAQAAAAAYkvbFWQBAAEBVAORMwLMkCwAIACgJwCACiswEAAAAAGCE1GvxlE0DAAIAKgIwiEBHWRYAEABQEYDB5YB3aRYAEABQEgAdAZfwLssCAAIASgIglwN5EgEnABAAUBEAHQFtJtBZ7gQAAgAqAqCfSKzNBDqXOwGAAICKAAwcS26fmQAApCnht8oZ2Um2vqaTpgZAXw7MzRVdNpgJAECa0vuH2YzsJFvv6VdMD8DATCDX8seSA0Ca0vP8DxnZSbbut5+wBAA6AvNcwlcBAGScBNbNFCIeZXQn0Txbf24ZAPRjyTUEuix6LDkApDGx5ncY3eO0hIZk44KrLQWAlREAgHS+B3jpl4zwcVrwTzssN/jPIZCvLQcshgAApDOrckQ80MQoH/3xL1qqvmVZAKyIAACkOaEX7mCgj9ICBzdaevAPpqlAnkjsBAAycvref4rRPqz1u2tEff7ltgDASggAQCay2iWiH+1j1A/u/OtqFE1L/tY2g//cseSFEgEAICN9FlzzKQ2B3/Pkb/1QNJV91XaD/xwCReZGAAAyGqcIv1YsRCyi4Au/hOj+4zZRX3CFbQe/FRAAABOke8PnRd+xTdpcOGz/gR+PidDJPaKl6ibbD/zzEJivIQAAZOxlwaX6V4K4r9Z+4z4SFJ4n7xEND/y1UgN/aFqKcwCAjJ3glusNbRnuazwuGoqv0nLlpKfn6POGEGjffJeyg/8TBLIBgIyeaO0rhtbV7vW3XLxNLouuEfFwt6G3/Sqs+cdL6wMaApUAQIZvEtr1E2PbaI88e9E7b9eeJYb+H32/r1AeAB2BBdkAQIas/6svEXF/vaE1dmPJl9JQCGOG6G8/k/okpb/Xlt/8rYoAAJilZJjBikFdu0vT1nHbNhirbdBzYhcAfBz3omwAUP4z4MYvaE/GUOqbaTxnRf28y9LacUMfvGwIAYkIAHwMagYRAAATpL9mp7HBtOnO9O91X/o1Da3U9y30u/9PW058GgAGESjJBgAlS4Vtv8XQ4JdP4kx1Wv9+Y5WOO18oZvAPOYKsvXQaAKhVHyBbxDwfpP5CLdYnmsuvz1xl3IIr9E97Kb+4DHfrnxYBIHMIAEAmS4UfKDD0BPW/si7jndaz7RfGPl2+8z8M/GFpX5wFALb/7PfQLJEI+1IeOLHudtFQ9DlTdNjwmTcNVQFqrf42A3/YTMCTJgQAIFNFQU4+YejJ2fHUveb5ocuKb+rFPFNtkYZjWqe/hIF/3jmEuaKjLAsAbLnff9uN+pMv5QFTe0QbMNNN1WG73/hvY6A9fR8DfzgCsyUC0wDAbjUAoo1v2W7KLH8sFAt6jS1p5v8VA3+E5YB3aRYA2KY0+F5jL81kEQ2zdlbvjjxjRUFfe4gBn2YEACCdL/7WzhDxYKt9P5tp6/hI/VEDk5uoaFlxIwN+xGvrEt5lWQBg6f3+71bbfuNM69rv6j9LTrWFaw4y2Ed7J5AnEXACgCX3+z/2ZUO1/6y0dVae7kPhkIv1dcAlOsudAGC5Qh8Gy4C3bbzdOqfjLPyiiPcGKBxysV64ajOBrklCAADSsd//t7cb2+9/YrflOmnXrhIKh1xkBCZjJgAAaTgEJN5ppIBG2JJ18ykckgYE5mrQLncCgKn3+x8qNfYk3Fdl3Z+4bvh3CoekA4EKJwCY8rPfw1eJRMTAWtjXbPm1cOh9Y6cfUTgkiXcu81zCVwEA5iv0cWq7oc7v2fpz6x+SufTvKBySJgRSmQkAwMXa7//UzXIlm/r38I/eMd1+/1Tj+8MqCoekA4H8iSMAABcjK7NErPU9Q8dn2enoLHnsd7SzgcIhaULAt8IJABnd7//yr43tiX/jMdt1TLmcoXCI+RAAgMl+8bf+CpEIeVJ/2oW6bHt+XvjMGxQOSde7lwJ5IrETANJe6OPoBkNPOu9v5tr3hNyKb4hErJ/CIelCoDBH+MdBAAAm88Xf5q9rj/DUO3hf0/+KurxP2bpTBg5tonBIOtEtkjMBAEjPfv/6g4Y6t/vBW+2/cUUvHNJB4RCTIAAAk3aw513Gdr0dfV6ZDundPpvCIelGYL6GAACY82DPRF9IrX3vFA7JSFqKLkQAACaj0Mfby40d7Ll3mXon466+2VBhVAqHpIhAcQ4ATO7Bnl80dLBntKNO1OfPVLIzBg8/Q+GQjCCQLfyVADBJB3vuMtaJH/+xuhtWKBySuWPJF2QDQKYP9uyteV35jti5cxGFQzJ4LDkAZOpgT15kDSTvUtHXeprCIRn6MgAAqRb6eLWQT1mTNR195DYKh2RofwAAZORgTw+bWYYXDjn5IoVDmAFY5WDPrca2sz7zKzrg8H3ri7+i74egcAgzAFsf7NnXeJwftIxWOGRfFYVDAMDkB3s2vW3gJ60J0brmO3Q+CocAgCULfbz0S2NFLQ4/Q8cbr3DIlp9ROCRtW4P5DJi+gz0jQe3pdC0dL4n0fniAwiEAYLL9/ofXGNvvv6uETkfhEJMtAQAgPQd7es6K+nmX0ekmUjjkdWOVlSgcwjsA8xzs+egddLiJFg4p+pyIBdwUDgGAgfV3aNePReTIetF/eoeINr4pYu5j6UnbSUODX5b4lp/+hiZS9yf9xJzut7aIzt8tEM3L/l69HwKVfEl4d+TpFZBDJ/eISO3hC65TLOg1dukjPSIe8qUlcnNXX8sp0Xt6v/Dvr9Z/7mz2cx1MD0Bw6zdE/5kXDU2/rdLkRhZZKUfujbfzwG9//CcagO/pn0Tt3uQnzY5n7jdtnUfTAhBY/xnRf+pZQxturAtBjXA//AP7vXGu/EftKX9EqNjkzKBl5T8BQHIv3L4i4t4aoXTTlg1dexbb52enm+7UN+mo3OQ2Z7MVMDEdAMEnbhCJiF/QBppcS1p98Mu38SrO5Ebbo+DZ9gvzAFBoIgACD35WxH21dJILfjh0v3Xr/q37N5GIRriJ59UvCJtmo5KpZgDR2v30jlE6THP59db7jDd/lv4pjjbCy0FvvSnqQJpmBtDz3G30ijGaFQte+Pev4caN0Tp3LgSAwcTcx+kRY04DEgPflS1U7NPIb/tVaHKPQ6YLmjaZAQD9PD3auC1wcKN1Tv55Lp8blkRr33I3AIQPLaYnJLNu7GxQ49d8CrVM/zzcFABE6+gsybamsq9a4tgv+eKSlgTqXU2ZBaDABAAov+lnAs29/hYLrP+/wI1K9tVOPJrRbcKmmAGw8Sf55tn6H+bf8lt1EzdqAi2TJcxMMQOgJd/kr+dMX+P/we9xoybQmiv+AQBoSQLwm7kWAOBWbpRVACgEAAAAAGYAAAAAAAAAAAAAAMASAAAAAACYAQAAAAAAAAAAAAAAAAAAAAAAAAAAAAAAAAAAAAAAAAAAAAAAAAAAAAAAAAAAAACAtQBwAQAAAAAAAAAAAAAAAAAAAIA6ADTmAwAAAAAAAAAAAAAAAAAAAAAAAAAAAAAAAAAAAAAAAAAAAAAAAAAAAAAAAAAAAAAAAAAAAAAAAAAAAICFAZgHAAAAAMoC0MAMAAAAAAAAAAAAgCUAAAAAAPASEAAAAAAAAAAAAABYAgAAAAAAAAAAAAAAAAAAAAAAAEwuAAl6QbIA7MizAADf40ZNBIDlN6gNQKLXSy9IsrVvudv0ALSsuJEbNYHWuOBqtQGIeU7RC5JsrWu/a3oAGoqv4kYl2RKxPlE3Z7raAEQ/2kdPSLI1lf6N6QGQHToe6eFmJdGiHbWZxdoMAIQPFNATkmj9rR+af/B/nNDJF7lhSbTuNx8HgO5Hr6EnJNH8+6stA0DH0/dxw5JobRtvzywAc00AgL4MaDhEbxirxWMZfVs84Y41f5aIh3zct7Gm/50Non7uDACQCT55k+Bz4BhTxT9us8zgH0zX7lJu3BjN8+Q9mYfaLADI9J/aTq8Y6eGvPUkbS6+zHAD1+ZeLfs9ZbuAILVL3nqibc4kJAMg1DwCBtZ8Wsfb36R3Dpv5tm+603OAfjFy2xHsD3MchLRZoE02Lv2yOpZqZABh4IXitiHc300tkSySE9/kCyw7+wUjAEv1h7qf0PNwtWtf8i3ne1ZgNAJmutbNE+KO31e4okR7Rvvmnlh/8g5GdPhZwq/3Sr6NWNK/4prle1poRAJnOFdOF/5XVItEXUq6jhGsOmq6jTMqus9LrRM/R3+ozG6UmcvGo/hJX7pA03dcaswKgI1Du1NZK14rAoUdt//RIRCOi98MDom3DD2038C+YDay+WfQc32n73YLy5W3wyLOm/nxragAGEajPc+nbS1urvy06XygW/lcf1C7sdr0TWTbHficCbzwmuvYu06f6DYWftf3Av/ArwUzR9ugd+ufCwMGN+uzA0vf0vedE4PVHROfOhcL98A9EXd6l5r8HZgdAxrssS9TPcSk3QAgBABAgBABAgJCL8A4gz2UdAHQEloIAIbbcCpxsOjQE6uZw8whRbgZwDoEyORPgBhKiJAAgQIiiSwAQIIQZAAgQAgAgQIiyS4DzEFiSxU0lZCIbgfJsBICMBwQIURcAHYHF7BMgRFkAziHADSZETQAGEJjGTSZkLADm2BgAECBEcQBk2iUCvBMgRK0lwNC0lTITIETJGcC5mUAJCBCiLAAgQIjiAIAAIYoDoL8TKMmmAxCiKgA6AouYCRAAUBYAHYGFIEBUBiBXbQBk3CBAAAAE6BBEvZeAAPAJAgtAgACAuqnUEHiArwMEAJRGoBUEiCoAzAaAkRFYAAIEAJgJ0EkISwB101KcQ0chtg4AjDcTAAHCPgC1EWAmQAAABOgwhCWA0gjMBwHCDEDZ+DQEmotAgNgLgB4GNwgQ9dIwx5WQAPyFgT1BBOQnwiL2CRCLAzDX1ecIVE3Zw6BO7Z0AMwFi5TQV5rjlDOC/GNCpI6BdRDoTsWRainOedHRXOi7TOnM3AzpVBJyiqQAEiPXW/x0Ls65zyBZYOWUJg5mZAFEnzcXZrzoGW0uZI8e/cuoJBrORrwPMBIg10pjv6m0pdMx0DG2+imlX+6ucbgYzCBAb/wIwzxVvK8n+lmOk5q3InqXNBI4xmA0gsAIEiHmf/K0l0//ZMVZrq3a4AlVTytggZAwB7WLT6YhJfvfvSsg1f1OZY4Yj2da9xjHTXzn1Xl+Vc6/WqWu0hBjcIECsscVXbvLRZqKt8lNfe2nWNaON8/8HFcTtIQbayskAAAAASUVORK5CYII=;" vertex="1" parent="1">
          <mxGeometry x="380" y="20" width="200" height="200" as="geometry" />
        </mxCell>
      </root>
    </mxGraphModel>
  </diagram>
</mxfile>
